<?xml version="1.0" encoding="UTF-8" standalone="no"?><!DOCTYPE svg PUBLIC "-//W3C//DTD SVG 1.1//EN" "http://www.w3.org/Graphics/SVG/1.1/DTD/svg11.dtd"><svg width="100%" height="100vh" viewBox="200 0 750 841.89" enable-background="new 0 0 1000 741.89" version="1.1" xmlns="http://www.w3.org/2000/svg" xmlns:xlink="http://www.w3.org/1999/xlink" xml:space="preserve" style="fill-rule:evenodd;clip-rule:evenodd;stroke-linejoin:round;stroke-miterlimit:1.41421;"><g>

    <path class="first-hover" d="M316.955,668.455c1.387,-0.379 2.782,-0.73 4.159,-1.145c6.661,-2 10.622,-8.125 8.921,-14.865c-5.253,-20.834 -10.661,-41.631 -16.252,-62.377c-1.85,-6.861 -7.938,-10.105 -14.955,-8.693c-4.055,0.814 -8.014,2.846 -12.271,0.963c-1.543,-0.682 -3.234,-1.197 -4.549,-2.195c-5.643,-4.295 -13.062,-2.488 -16.171,3.82c-1.152,2.34 -3.062,4.309 -5.089,6.152c-1.042,-9.396 -1.814,-18.342 5.712,-25.674c3.87,-3.768 6.919,-8.389 10.241,-12.701c2.077,-2.695 4.679,-3.904 8.085,-3.898c24.64,0.049 49.277,0.047 73.915,0.002c3.39,-0.006 6.003,1.143 8.103,3.854c4.248,5.488 8.985,10.637 12.815,16.395c2.064,3.104 3.722,7.166 3.765,10.816c0.312,26.539 0.183,53.084 0.157,79.631c-0.006,6.576 -3.294,10.615 -9.214,10.66c-19.046,0.143 -38.094,0.055 -57.141,0.055c-0.075,-0.269 -0.153,-0.535 -0.231,-0.8Zm49.055,-110.907c-2.193,-4.48 -4.806,-6.074 -9.093,-6.039c-23.546,0.184 -47.095,0.176 -70.643,0.006c-4.357,-0.031 -6.729,1.797 -8.644,6.162c10.747,0 20.961,0 31.222,0c-1.136,4.576 -3.821,5.531 -7.748,5.396c-8.022,-0.275 -16.061,-0.086 -24.09,-0.08c-5.073,0.002 -5.952,0.627 -8.139,5.719c35.337,0 70.688,0 106.106,0c-1.938,-4.697 -5.11,-6.049 -9.806,-5.83c-8.421,0.391 -16.879,-0.084 -25.311,0.195c-3.932,0.129 -5.816,-1.139 -5.809,-5.529c10.477,0 20.89,0 31.955,0Z" style="fill:#3e3e3e;fill-rule:nonzero;"/>

    <path class="second-hover" d="M595.547,139.357c3.127,2.564 6.51,5.37 9.934,8.126c0.832,0.669 1.74,1.299 2.711,1.728c28.205,12.401 38.947,42.459 24.896,69.717c-0.31,0.602 -0.595,1.216 -1.096,2.243c8.413,4.396 7.641,12.35 7.175,19.977c-0.083,1.345 -2.306,2.673 -3.729,3.762c-0.519,0.396 -1.586,0.079 -2.402,0.079c-32.276,0.001 -64.553,0.004 -96.829,-0.001c-5.792,-0.001 -6.298,-0.519 -6.317,-6.282c-0.004,-1.09 -0.002,-2.179 0,-3.269c0.019,-9.243 2.832,-12.986 11.965,-15.656c0,-1.635 0,-3.349 0,-5.782c-2.643,0 -5.373,0.372 -7.923,-0.144c-1.458,-0.294 -2.622,-2.035 -3.918,-3.124c1.271,-0.99 2.526,-2.819 3.812,-2.839c13.615,-0.211 27.236,-0.224 40.852,0.007c1.271,0.021 2.507,2.086 3.761,3.202c-1.259,0.967 -2.411,2.515 -3.8,2.771c-2.467,0.456 -5.079,0.128 -7.844,0.128c0,2.226 0,3.932 0,5.314c10.077,0 20.133,1.158 29.786,-0.32c9.972,-1.526 15.92,-9.166 17.775,-19.103c1.857,-9.951 -1.562,-18.19 -9.585,-24.48c-1.995,-1.563 -3.662,-1.952 -6.198,-0.636c-7.019,3.641 -13.701,2.173 -20.271,-2.782c-1.881,3.821 -3.705,7.412 -5.422,11.052c-1.396,2.956 -3.334,3.594 -6.251,2.034c-5.042,-2.693 -10.134,-5.301 -15.271,-7.805c-3.166,-1.543 -3.565,-3.558 -2.055,-6.616c7.717,-15.612 15.278,-31.303 23.04,-46.894c0.683,-1.372 2.304,-2.404 3.688,-3.273c2.516,-1.577 3.804,-3.438 2.823,-6.528c-0.334,-1.056 -0.449,-2.464 -0.021,-3.428c1.815,-4.104 3.819,-8.126 5.86,-12.125c1.121,-2.197 2.883,-2.676 5.127,-1.514c5.438,2.815 10.896,5.595 16.361,8.359c2.529,1.279 3.244,3.102 1.954,5.69c-1.819,3.654 -3.475,7.397 -5.455,10.961c-0.649,1.169 -2.213,1.792 -3.143,2.855c-1.317,1.511 -3.125,3.057 -3.491,4.84c-0.652,3.176 -0.384,6.542 -0.499,9.756Zm-4.991,12.719c-3.104,0.084 -5.869,3.059 -5.801,6.239c0.071,3.282 2.813,5.922 6.075,5.85c3.231,-0.071 5.92,-2.894 5.83,-6.12c-0.085,-3.146 -3.057,-6.051 -6.104,-5.969Z" style="fill:#3e3e3e;fill-rule:nonzero;"/>

    <path class="first-hover" d="M292.494,588.933c0.104,-0.088 0.194,-0.219 0.314,-0.258c9.577,-3.062 14.353,-4.885 17.578,9.156c4.136,18.014 9.186,35.818 13.812,53.721c1.618,6.258 -0.098,9.35 -6.208,10.959c-14.594,3.848 -29.2,7.646 -43.821,11.385c-5.688,1.455 -8.912,-0.428 -10.392,-6.062c-5.107,-19.465 -10.166,-38.939 -15.186,-58.424c-1.649,-6.408 0.171,-9.402 6.536,-11.1c1.822,-0.486 3.673,-0.863 5.425,-1.27c4.21,6.498 5.708,7.047 13.216,5.062c3.549,-0.938 7.11,-1.828 10.659,-2.764c6.889,-1.811 8.265,-3.596 8.067,-10.405Zm-21.539,78.539c15.88,-4.143 31.331,-8.172 46.979,-12.254c-4.745,-18.209 -9.332,-35.814 -13.99,-53.697c-15.869,4.139 -31.327,8.17 -46.98,12.252c4.74,18.193 9.327,35.801 13.991,53.699Z" style="fill:#3e3e3e;fill-rule:nonzero;"/>

    <path class="third-hover" d="M844.224,681.888c-1.232,-0.602 -2.986,-0.875 -3.488,-1.816c-1.488,-2.785 -4.023,-2.877 -6.527,-3.264c-29.955,-4.623 -52.645,-27.801 -56.732,-57.801c-0.202,-1.477 -1.298,-3.047 -2.405,-4.145c-2.55,-2.533 -2.515,-5.611 0.07,-8.172c1.104,-1.092 2.141,-2.695 2.344,-4.184c4.093,-30.092 27.045,-53.293 57.198,-57.869c2.048,-0.311 4.123,-1.562 5.811,-2.863c2.574,-1.982 4.731,-2.053 7.339,-0.09c1.714,1.289 3.749,2.619 5.795,2.934c30.689,4.707 53.158,27.646 57.321,58.588c0.165,1.223 1.257,2.506 2.243,3.4c2.899,2.629 2.856,5.699 0.022,8.398c-1.112,1.061 -2.146,2.709 -2.317,4.189c-3.271,28.285 -26.627,52.812 -54.842,57.381c-3.284,0.529 -6.755,0.367 -8.783,3.9c-0.428,0.744 -1.87,0.901 -3.049,1.414Zm-64.973,-64.525c0.082,1.053 0.098,1.324 0.123,1.596c2.819,28.445 28.786,54.092 57.222,56.383c1.059,0.086 2.469,-0.707 3.267,-1.525c2.979,-3.059 5.74,-3.059 8.713,0c0.795,0.818 2.206,1.609 3.261,1.521c28.387,-2.346 54.271,-27.734 57.056,-55.994c0.139,-1.424 -0.661,-3.314 -1.66,-4.4c-2.688,-2.928 -3.094,-5.738 0.014,-7.994c2.211,-1.605 1.932,-3.35 1.659,-5.324c-3.929,-28.695 -27.593,-51.9 -56.479,-55.244c-1.232,-0.143 -2.963,0.73 -3.871,1.689c-2.736,2.891 -6.049,2.879 -8.746,-0.092c-0.817,-0.9 -2.377,-1.762 -3.502,-1.654c-28.759,2.766 -53.854,27.586 -56.831,56.221c-0.134,1.289 0.656,3.047 1.603,4.008c3.06,3.104 3.068,5.467 -0.266,8.627c-0.785,0.736 -1.28,1.774 -1.563,2.182Z" style="fill:#3e3e3e;fill-rule:nonzero;"/>

    <path d="M522.377,178.853c-1.481,0.451 -2.95,0.955 -4.448,1.344c-88.915,23.114 -152.318,76.777 -191.275,159.713c-1.294,2.756 -2.562,5.015 0.483,8.194c4.138,4.324 0.714,11.578 -5.443,11.979c-2.886,0.188 -3.606,1.49 -4.34,3.708c-12.56,38.011 -17.501,76.954 -13.121,116.772c1.719,15.633 5.363,31.053 8.139,46.568c0.191,1.064 0.473,2.117 0.646,3.186c0.027,0.16 -0.3,0.377 -0.854,1.02c-0.532,-1.256 -1.095,-2.238 -1.377,-3.295c-7.997,-29.965 -11.189,-60.398 -9.29,-91.398c1.56,-25.428 6.436,-50.149 14.435,-74.312c0.461,-1.392 -0.14,-3.59 -1.02,-4.889c-3.378,-4.99 -1.356,-11.609 4.5,-12.428c3.092,-0.432 4.046,-1.942 5.062,-4.252c21.849,-49.762 55.25,-90.009 99.957,-120.837c28.654,-19.759 60.024,-33.523 93.859,-41.677c0.924,-0.224 1.865,-0.396 2.81,-0.515c0.364,-0.046 0.756,0.13 1.135,0.205c0.046,0.307 0.094,0.611 0.142,0.914Z" style="fill:#3e3e3e;fill-rule:nonzero;"/>

    <path d="M653.59,179.397c1.143,0.208 2.312,0.321 3.426,0.637c86.361,24.555 148.356,77.653 186.203,159.018c1.395,2.998 2.135,5.756 6.763,6.062c5.757,0.381 8.125,8.027 4.044,12.29c-2.123,2.218 -2.041,3.923 -1.195,6.43c10.729,31.797 15.482,64.512 14.564,98.029c-0.609,22.26 -3.75,44.184 -9.648,65.686c-0.328,1.201 -0.832,2.357 -1.255,3.533c-0.396,-0.1 -0.792,-0.199 -1.188,-0.299c0.274,-1.316 0.487,-2.648 0.838,-3.943c6.989,-25.943 10.104,-52.371 9.508,-79.201c-0.637,-28.627 -5.428,-56.574 -14.539,-83.755c-0.738,-2.201 -1.526,-3.468 -4.279,-3.897c-5.951,-0.931 -8.434,-7.515 -4.604,-12.214c1.803,-2.213 1.391,-3.779 0.446,-5.84c-37.231,-81.285 -98.521,-134.797 -184.489,-159.82c-1.615,-0.471 -3.242,-0.899 -4.862,-1.348c0.086,-0.457 0.176,-0.913 0.267,-1.368Z" style="fill:#3e3e3e;fill-rule:nonzero;"/>


    <path d="M593.153,737.158c-1.551,5.652 -4.076,8.094 -8.129,8.09c-4.043,-0.002 -6.551,-2.43 -8.128,-8.084c-68.149,-2.561 -128.171,-25.893 -179.656,-70.52c0.26,-0.523 0.52,-1.047 0.779,-1.568c1.271,1.049 2.554,2.082 3.812,3.148c43.7,37.029 94.051,58.732 150.906,65.35c6.889,0.803 13.843,1.039 20.762,1.605c2.296,0.188 3.912,-0.174 5.471,-2.361c3.098,-4.344 8.974,-4.297 12.165,0.027c1.455,1.973 2.906,2.381 5.108,2.268c67.787,-3.467 126.996,-27.707 177.465,-73.166c0.498,-0.447 1.027,-0.861 1.541,-1.291c0.275,0.234 0.552,0.471 0.827,0.705c-0.909,1.121 -1.684,2.391 -2.746,3.34c-27.834,24.875 -59.289,43.666 -94.479,56.188c-26.604,9.467 -54.049,14.576 -82.211,16.014c-1.08,0.054 -2.157,0.157 -3.487,0.255Z" style="fill:#3e3e3e;fill-rule:nonzero;"/><path d="M267.714,601.001c-1.131,-1.197 -3.118,-2.359 -3.304,-3.76c-0.188,-1.422 1.045,-3.963 2.278,-4.457c2.762,-1.105 4.084,-2.32 4.155,-5.508c0.029,-1.324 2.099,-3.359 3.546,-3.678c1.444,-0.316 4.058,0.646 4.773,1.863c1.577,2.682 3.292,2.795 6.033,2.465c1.328,-0.16 3.726,1.479 4.135,2.777c0.402,1.277 -0.733,4.221 -1.825,4.594c-6.259,2.14 -12.708,3.732 -19.791,5.704Z" style="fill:#3e3e3e;fill-rule:nonzero;"/><path d="M267.007,635.578c-0.029,-0.109 -0.743,-1.279 -0.482,-2.162c0.306,-1.035 1.309,-2.359 2.269,-2.627c8.498,-2.365 17.052,-4.527 25.592,-6.742c2.363,-0.613 4.709,-1.369 7.113,-1.723c0.766,-0.113 2.165,0.697 2.399,1.385c0.21,0.617 -0.618,2.229 -1.26,2.404c-11.253,3.088 -22.547,6.023 -35.631,9.465Z" style="fill:#3e3e3e;fill-rule:nonzero;"/><path d="M265.008,622.974c-0.362,-0.338 -1.724,-1.236 -1.597,-1.561c0.404,-1.053 1.194,-2.447 2.123,-2.719c6.242,-1.818 12.555,-3.393 18.85,-5.023c4.458,-1.154 8.901,-2.402 13.409,-3.312c0.902,-0.182 2.076,0.984 3.124,1.531c-0.711,0.824 -1.283,2.16 -2.153,2.396c-10.725,2.902 -21.49,5.645 -32.245,8.426c-0.264,0.067 -0.535,0.094 -1.511,0.262Z" style="fill:#3e3e3e;fill-rule:nonzero;"/><path d="M271.077,645.994c-0.521,-0.484 -1.695,-1.076 -1.783,-1.799c-0.091,-0.752 0.721,-2.182 1.397,-2.369c8.882,-2.445 17.798,-4.768 26.745,-6.961c0.726,-0.18 2.191,0.623 2.477,1.314c0.245,0.594 -0.538,2.289 -1.153,2.461c-9.007,2.504 -18.062,4.832 -27.683,7.354Z" style="fill:#3e3e3e;fill-rule:nonzero;"/><path d="M272.999,658.458c-0.049,-0.168 -0.67,-1.238 -0.571,-2.234c0.087,-0.854 0.852,-2.154 1.566,-2.352c7.981,-2.215 16,-4.299 24.05,-6.25c0.675,-0.162 2.096,0.738 2.344,1.439c0.209,0.592 -0.619,2.168 -1.261,2.35c-8.096,2.296 -16.243,4.417 -26.128,7.047Z" style="fill:#3e3e3e;fill-rule:nonzero;"/><g class="third-hover"><path d="M860.537,575.003c12.479,12.176 24.391,23.797 35.178,34.324c-11.58,12.389 -23.014,24.617 -35.178,37.629c0,-24.537 0,-47.787 0,-71.953Z" style="fill:#3e3e3e;fill-rule:nonzero;"/><path d="M830.624,635.957c-7.623,-8.789 -14.641,-16.883 -21.831,-25.172c7.202,-8.305 14.223,-16.398 21.537,-24.834c8.083,8.746 15.981,17.293 23.371,25.289c-6.814,7.299 -14.752,15.799 -23.077,24.717Z" style="fill:#3e3e3e;fill-rule:nonzero;"/><path d="M858.308,610.794c-8.474,-9.188 -16.255,-17.629 -24.09,-26.125c7.059,-2.848 15.366,-6.197 24.09,-9.715c0,11.903 0,23.253 0,35.84Z" style="fill:#3e3e3e;fill-rule:nonzero;"/><path d="M834.018,636.871c7.89,-8.529 15.687,-16.959 24.2,-26.162c0,12.541 0,23.93 0,35.875c-8.542,-3.43 -16.796,-6.743 -24.2,-9.713Z" style="fill:#3e3e3e;fill-rule:nonzero;"/><path d="M857.007,648.937c-14.159,2.15 -28.317,4.301 -42.198,6.408c5.209,-5.506 10.385,-11.037 15.67,-16.463c0.502,-0.516 1.838,-0.74 2.539,-0.465c8.059,3.158 16.07,6.439 24.093,9.689c-0.036,0.276 -0.07,0.554 -0.104,0.831Z" style="fill:#3e3e3e;fill-rule:nonzero;"/><path d="M856.952,573.576c-7.896,3.184 -15.777,6.408 -23.717,9.486c-0.803,0.311 -2.321,0.09 -2.881,-0.488c-5.162,-5.336 -10.187,-10.807 -15.266,-16.258c13.661,2.062 27.719,4.186 41.775,6.305c0.031,0.318 0.061,0.636 0.089,0.955Z" style="fill:#3e3e3e;fill-rule:nonzero;"/><path d="M791.64,595.126c5.361,5.805 10.125,10.963 14.615,15.822c-4.396,4.605 -9.242,9.682 -14.615,15.309c0,-10.498 0,-20.279 0,-31.131Z" style="fill:#3e3e3e;fill-rule:nonzero;"/></g></g><g><path class="default-show" d="M399.695,423.766l0,71.997l371.981,0l0,-71.997l-371.981,0Zm98.446,48.857l-4.521,0l0,-9.999l-10.626,0l0,9.999l-4.554,0l0,-23.43l4.554,0l0,9.471l10.626,0l0,-9.471l4.521,0l0,23.43Zm9.438,0l-4.554,0l0,-23.43l4.554,0l0,23.43Zm21.153,0l-16.269,0l0,-23.43l15.972,0l0,3.993l-11.418,0l0,5.643l9.867,0l0,3.696l-9.867,0l0,6.104l11.715,0l0,3.994Zm17.391,0l-4.785,-7.854l-4.488,0l0,7.854l-4.554,0l0,-23.43l10.362,0c1.078,0 2.073,0.226 2.986,0.676c0.913,0.451 1.7,1.046 2.359,1.782c0.66,0.737 1.177,1.573 1.551,2.508c0.374,0.936 0.561,1.876 0.561,2.822c0,1.518 -0.38,2.898 -1.139,4.141c-0.759,1.243 -1.788,2.141 -3.085,2.69l5.346,8.811l-5.114,0l0,0Zm30.887,0l-7.293,-10.131l-3.003,3.135l0,6.996l-4.554,0l0,-23.397l4.554,0l0,11.121l9.834,-11.153l5.016,0l-8.976,10.395l9.537,13.035l-5.115,0l0,-0.001Zm23.728,0l-16.501,0l0,-23.43l4.554,0l0,19.437l11.947,0l0,3.993Zm7.325,0l-4.554,0l0,-23.43l4.554,0l0,23.43Zm22.852,-2.921c-0.692,0.672 -1.474,1.238 -2.343,1.7c-0.869,0.462 -1.799,0.813 -2.788,1.056c-0.99,0.242 -1.959,0.363 -2.904,0.363c-1.672,0 -3.201,-0.352 -4.587,-1.057c-1.386,-0.703 -2.58,-1.622 -3.581,-2.755c-1.001,-1.133 -1.781,-2.42 -2.343,-3.861c-0.561,-1.44 -0.841,-2.909 -0.841,-4.405c0,-1.43 0.258,-2.844 0.775,-4.24c0.517,-1.397 1.271,-2.646 2.26,-3.746c0.99,-1.1 2.2,-1.99 3.631,-2.673c1.43,-0.682 3.058,-1.022 4.884,-1.022c2.155,0 4.021,0.473 5.593,1.419c1.573,0.945 2.745,2.178 3.515,3.695l-3.498,2.409c-0.308,-0.66 -0.682,-1.215 -1.122,-1.666c-0.439,-0.451 -0.913,-0.809 -1.419,-1.073c-0.506,-0.264 -1.034,-0.456 -1.584,-0.577c-0.55,-0.121 -1.089,-0.182 -1.616,-0.182c-1.145,0 -2.141,0.231 -2.987,0.693c-0.846,0.462 -1.551,1.062 -2.111,1.798c-0.562,0.737 -0.985,1.573 -1.271,2.509c-0.286,0.935 -0.43,1.864 -0.43,2.788c0,1.034 0.165,2.029 0.495,2.986c0.33,0.957 0.798,1.799 1.402,2.524c0.605,0.727 1.331,1.31 2.179,1.749c0.847,0.44 1.776,0.66 2.788,0.66c0.528,0 1.078,-0.065 1.65,-0.198c0.571,-0.132 1.116,-0.341 1.633,-0.627c0.518,-0.285 0.996,-0.654 1.436,-1.105c0.44,-0.45 0.792,-0.995 1.057,-1.633l3.729,2.145c-0.376,0.879 -0.909,1.655 -1.602,2.326Zm19.519,2.921l-7.293,-10.131l-3.003,3.135l0,6.996l-4.554,0l0,-23.397l4.554,0l0,11.121l9.834,-11.153l5.016,0l-8.976,10.395l9.537,13.035l-5.115,0l0,-0.001Zm23.496,0l-16.269,0l0,-23.43l15.972,0l0,3.993l-11.418,0l0,5.643l9.867,0l0,3.696l-9.867,0l0,6.104l11.715,0l0,3.994Zm23.86,0l-3.696,0l-12.045,-15.015l0,15.015l-4.554,0l0,-23.43l3.53,0l12.21,15.378l0,-15.346l4.555,0l0,23.398Z" style="fill:#3e3e3e;fill-rule:nonzero;"/><path class="default-show" d="M544.555,454.258c-0.297,-0.341 -0.639,-0.605 -1.023,-0.792c-0.385,-0.187 -0.776,-0.28 -1.172,-0.28l-5.511,0l0,7.59l5.709,0c0.417,0 0.809,-0.1 1.171,-0.297c0.363,-0.198 0.677,-0.468 0.94,-0.809c0.264,-0.341 0.473,-0.743 0.627,-1.205c0.154,-0.462 0.231,-0.957 0.231,-1.484c0,-0.55 -0.088,-1.057 -0.264,-1.519c-0.174,-0.462 -0.411,-0.863 -0.708,-1.204Z" style="fill:#3e3e3e;fill-rule:nonzero;"/></g>
    <path class="default-show" d="M615.363,333.597l-30,-40.5l-30.75,40.5c0,0 8.572,-8.476 21.375,-11.715l0,72.574l18,0l0,-72.879c6.787,1.548 14.029,5.178 21.375,12.02Z" style="fill:#525252;fill-rule:nonzero;"/><path  class="default-show" d="M452.998,545.162l-5.401,50.111l50.061,-8.929c0,0 -12.047,0.42 -23.655,-5.878l46.578,-50.511l-13.232,-12.203l-46.785,50.736c-3.94,-5.738 -6.804,-13.317 -7.566,-23.326Z" style="fill:#525252;fill-rule:nonzero;"/><path  class="default-show" d="M675.074,586.344l49.51,9.437l-4.85,-50.619c0,0 -0.556,12.042 -7.772,23.103l-46.577,-50.512l-13.232,12.203l46.784,50.735c-6.039,3.462 -13.825,5.703 -23.863,5.653Z" style="fill:#525252;fill-rule:nonzero;"/></svg>