<?xml version="1.0" encoding="utf-8"?>
<!-- Generator: Adobe Illustrator 16.0.0, SVG Export Plug-In . SVG Version: 6.00 Build 0)  -->
<!DOCTYPE svg PUBLIC "-//W3C//DTD SVG 1.1//EN" "http://www.w3.org/Graphics/SVG/1.1/DTD/svg11.dtd">
<svg version="1.1" id="Capa_1" xmlns="http://www.w3.org/2000/svg" xmlns:xlink="http://www.w3.org/1999/xlink" x="0px" y="0px"
	width="100%" height="100vh" viewBox="200 0 750 841.89" enable-background="new 0 -23.444 1190.551 896.957"
	 xml:space="preserve">
<path class="first-hover" fill="#3E3E3E" d="M331.368,668.984c1.388-0.379,2.782-0.73,4.159-1.145c6.661-2,10.622-8.125,8.921-14.865
	c-5.253-20.834-10.661-41.631-16.252-62.377c-1.85-6.861-7.938-10.105-14.955-8.693c-4.055,0.814-8.014,2.846-12.271,0.963
	c-1.543-0.682-3.234-1.197-4.549-2.195c-5.644-4.295-13.062-2.488-16.171,3.82c-1.152,2.34-3.062,4.309-5.089,6.152
	c-1.042-9.396-1.814-18.342,5.712-25.674c3.87-3.768,6.919-8.389,10.24-12.701c2.077-2.695,4.68-3.904,8.086-3.898
	c24.64,0.049,49.276,0.047,73.914,0.002c3.391-0.006,6.003,1.143,8.104,3.854c4.248,5.488,8.984,10.639,12.814,16.396
	c2.064,3.104,3.723,7.166,3.766,10.814c0.312,26.539,0.183,53.084,0.156,79.633c-0.006,6.574-3.294,10.613-9.214,10.658
	c-19.046,0.145-38.094,0.057-57.141,0.057C331.524,669.515,331.447,669.25,331.368,668.984z M380.424,558.078
	c-2.193-4.48-4.807-6.074-9.094-6.039c-23.546,0.184-47.095,0.176-70.643,0.006c-4.356-0.031-6.729,1.797-8.644,6.162
	c10.747,0,20.961,0,31.222,0c-1.136,4.576-3.821,5.531-7.748,5.396c-8.022-0.275-16.061-0.086-24.09-0.08
	c-5.073,0.002-5.952,0.627-8.139,5.719c35.337,0,70.688,0,106.105,0c-1.938-4.697-5.11-6.049-9.806-5.83
	c-8.421,0.391-16.879-0.084-25.312,0.195c-3.932,0.129-5.815-1.139-5.809-5.529C358.946,558.078,369.358,558.078,380.424,558.078z"
	/>
<path class="second-hover" fill="#3E3E3E" d="M609.96,139.886c3.127,2.564,6.51,5.37,9.934,8.126c0.832,0.669,1.74,1.299,2.711,1.727
	c28.205,12.402,38.947,42.459,24.896,69.717c-0.311,0.602-0.596,1.216-1.097,2.243c8.413,4.397,7.642,12.35,7.175,19.977
	c-0.083,1.345-2.306,2.673-3.729,3.762c-0.519,0.396-1.586,0.079-2.402,0.079c-32.275,0.001-64.553,0.004-96.829-0.001
	c-5.792-0.001-6.298-0.519-6.316-6.282c-0.004-1.09-0.002-2.179,0-3.269c0.019-9.243,2.832-12.986,11.965-15.656
	c0-1.635,0-3.349,0-5.782c-2.643,0-5.373,0.372-7.923-0.144c-1.458-0.294-2.622-2.035-3.918-3.124
	c1.271-0.99,2.525-2.819,3.812-2.839c13.615-0.211,27.236-0.224,40.853,0.007c1.271,0.021,2.507,2.086,3.761,3.202
	c-1.259,0.967-2.411,2.515-3.8,2.771c-2.467,0.456-5.079,0.128-7.844,0.128c0,2.225,0,3.931,0,5.314
	c10.076,0,20.133,1.158,29.785-0.32c9.973-1.527,15.921-9.166,17.775-19.103c1.857-9.951-1.562-18.19-9.585-24.48
	c-1.995-1.564-3.662-1.952-6.198-0.636c-7.019,3.641-13.701,2.173-20.271-2.782c-1.881,3.821-3.705,7.412-5.422,11.051
	c-1.396,2.957-3.334,3.594-6.251,2.035c-5.042-2.694-10.135-5.301-15.271-7.805c-3.166-1.543-3.564-3.558-2.055-6.616
	c7.717-15.613,15.278-31.303,23.04-46.894c0.683-1.372,2.304-2.404,3.688-3.273c2.517-1.577,3.805-3.438,2.823-6.529
	c-0.334-1.055-0.449-2.463-0.021-3.427c1.814-4.104,3.818-8.126,5.859-12.125c1.121-2.198,2.883-2.676,5.127-1.514
	c5.438,2.815,10.896,5.595,16.361,8.359c2.529,1.28,3.244,3.102,1.954,5.691c-1.819,3.654-3.476,7.397-5.455,10.961
	c-0.649,1.169-2.213,1.792-3.144,2.855c-1.316,1.511-3.125,3.057-3.49,4.84C609.807,133.306,610.074,136.672,609.96,139.886z
	 M604.969,152.605c-3.104,0.084-5.869,3.058-5.801,6.239c0.07,3.282,2.812,5.922,6.074,5.85c3.231-0.072,5.92-2.894,5.83-6.121
	C610.988,155.428,608.016,152.523,604.969,152.605z"/>
<path class="first-hover" fill="#3E3E3E" d="M306.907,589.462c0.104-0.088,0.194-0.219,0.314-0.258c9.577-3.062,14.353-4.885,17.578,9.156
	c4.136,18.014,9.186,35.816,13.812,53.721c1.618,6.258-0.098,9.35-6.208,10.959c-14.594,3.848-29.199,7.645-43.82,11.385
	c-5.688,1.455-8.912-0.428-10.393-6.062c-5.106-19.465-10.166-38.939-15.186-58.424c-1.649-6.408,0.171-9.402,6.536-11.1
	c1.821-0.486,3.673-0.863,5.425-1.27c4.21,6.498,5.708,7.047,13.216,5.061c3.549-0.938,7.11-1.828,10.659-2.764
	C305.729,598.056,307.105,596.271,306.907,589.462z M285.369,668.001c15.88-4.143,31.33-8.172,46.979-12.254
	c-4.745-18.209-9.332-35.814-13.99-53.697c-15.869,4.139-31.327,8.17-46.979,12.252
	C276.118,632.496,280.705,650.103,285.369,668.001z"/>
<path class="third-hover" fill="#3E3E3E" d="M858.637,682.417c-1.232-0.602-2.986-0.875-3.488-1.816c-1.488-2.785-4.022-2.877-6.527-3.264
	c-29.954-4.623-52.645-27.801-56.731-57.801c-0.202-1.479-1.298-3.047-2.405-4.146c-2.55-2.531-2.515-5.609,0.07-8.172
	c1.104-1.092,2.141-2.693,2.344-4.184c4.093-30.092,27.045-53.293,57.198-57.869c2.048-0.311,4.123-1.562,5.811-2.863
	c2.574-1.98,4.731-2.053,7.339-0.09c1.715,1.289,3.749,2.619,5.795,2.934c30.689,4.707,53.158,27.646,57.321,58.59
	c0.165,1.223,1.257,2.506,2.243,3.398c2.898,2.629,2.855,5.699,0.021,8.398c-1.111,1.061-2.146,2.709-2.316,4.189
	c-3.271,28.285-26.627,52.812-54.842,57.381c-3.284,0.529-6.755,0.367-8.783,3.9C861.259,681.748,859.816,681.904,858.637,682.417z
	 M793.663,617.892c0.082,1.053,0.099,1.324,0.123,1.596c2.819,28.445,28.786,54.092,57.223,56.383
	c1.059,0.086,2.469-0.707,3.267-1.525c2.979-3.059,5.74-3.059,8.713,0c0.795,0.818,2.206,1.609,3.262,1.521
	c28.387-2.346,54.271-27.734,57.056-55.994c0.139-1.424-0.661-3.314-1.66-4.4c-2.688-2.928-3.094-5.736,0.014-7.994
	c2.212-1.604,1.933-3.35,1.659-5.322c-3.929-28.695-27.593-51.9-56.479-55.244c-1.232-0.145-2.963,0.729-3.871,1.688
	c-2.736,2.893-6.049,2.879-8.746-0.092c-0.817-0.898-2.377-1.762-3.502-1.654c-28.759,2.768-53.854,27.588-56.831,56.223
	c-0.134,1.289,0.656,3.047,1.603,4.008c3.061,3.104,3.068,5.467-0.266,8.627C794.442,616.447,793.947,617.484,793.663,617.892z"/>
<path fill="#3E3E3E" d="M536.789,179.382c-1.48,0.451-2.949,0.955-4.447,1.344c-88.914,23.114-152.317,76.777-191.274,159.713
	c-1.294,2.756-2.562,5.014,0.483,8.195c4.138,4.323,0.714,11.578-5.443,11.979c-2.886,0.188-3.605,1.49-4.34,3.708
	c-12.561,38.01-17.501,76.954-13.121,116.772c1.719,15.633,5.363,31.053,8.139,46.568c0.191,1.062,0.474,2.117,0.646,3.186
	c0.027,0.16-0.3,0.377-0.854,1.02c-0.531-1.256-1.095-2.238-1.377-3.295c-7.997-29.965-11.188-60.398-9.29-91.398
	c1.561-25.426,6.437-50.148,14.436-74.312c0.461-1.392-0.141-3.59-1.021-4.889c-3.378-4.99-1.355-11.609,4.5-12.427
	c3.093-0.432,4.046-1.943,5.062-4.253c21.849-49.762,55.25-90.009,99.957-120.837c28.652-19.759,60.022-33.523,93.857-41.677
	c0.925-0.223,1.865-0.396,2.811-0.514c0.364-0.046,0.756,0.13,1.135,0.205C536.694,178.775,536.741,179.079,536.789,179.382z"/>
<path fill="#3E3E3E" d="M668.003,179.926c1.143,0.208,2.312,0.321,3.426,0.637c86.36,24.554,148.355,77.653,186.203,159.017
	c1.395,2.998,2.135,5.757,6.763,6.063c5.757,0.381,8.125,8.027,4.044,12.29c-2.123,2.218-2.041,3.923-1.195,6.43
	c10.729,31.797,15.482,64.512,14.564,98.029c-0.609,22.26-3.75,44.184-9.648,65.686c-0.327,1.201-0.832,2.357-1.255,3.533
	c-0.396-0.1-0.792-0.199-1.188-0.299c0.273-1.316,0.486-2.648,0.838-3.943c6.989-25.943,10.104-52.371,9.508-79.201
	c-0.637-28.626-5.428-56.574-14.539-83.753c-0.738-2.202-1.525-3.468-4.279-3.898c-5.95-0.931-8.434-7.514-4.604-12.214
	c1.803-2.212,1.391-3.779,0.446-5.839c-37.231-81.286-98.521-134.798-184.489-159.821c-1.615-0.471-3.242-0.9-4.862-1.348
	C667.822,180.837,667.911,180.381,668.003,179.926z"/>
<path fill="#3E3E3E" d="M607.566,737.687c-1.551,5.652-4.076,8.094-8.129,8.09c-4.043-0.002-6.551-2.43-8.128-8.084
	c-68.149-2.561-128.171-25.893-179.655-70.52c0.26-0.523,0.521-1.047,0.779-1.568c1.271,1.049,2.554,2.082,3.812,3.148
	c43.699,37.029,94.052,58.732,150.905,65.35c6.889,0.803,13.843,1.039,20.762,1.605c2.296,0.188,3.912-0.174,5.472-2.361
	c3.098-4.344,8.974-4.297,12.165,0.027c1.455,1.973,2.905,2.381,5.107,2.268c67.787-3.467,126.996-27.707,177.465-73.166
	c0.498-0.447,1.027-0.861,1.541-1.291c0.275,0.234,0.553,0.471,0.827,0.705c-0.909,1.121-1.684,2.391-2.746,3.34
	c-27.834,24.875-59.289,43.666-94.479,56.188c-26.604,9.467-54.049,14.576-82.211,16.014
	C609.973,737.486,608.896,737.589,607.566,737.687z"/>
<path fill="#3E3E3E" d="M282.128,601.531c-1.131-1.197-3.118-2.359-3.304-3.76c-0.188-1.422,1.045-3.963,2.277-4.457
	c2.762-1.105,4.084-2.32,4.155-5.508c0.029-1.324,2.099-3.359,3.546-3.678c1.444-0.316,4.058,0.646,4.773,1.863
	c1.576,2.682,3.292,2.795,6.032,2.465c1.328-0.16,3.727,1.479,4.136,2.777c0.401,1.275-0.733,4.221-1.825,4.594
	C295.66,597.966,289.211,599.558,282.128,601.531z"/>
<path fill="#3E3E3E" d="M281.421,636.107c-0.029-0.109-0.743-1.279-0.482-2.162c0.307-1.035,1.31-2.359,2.27-2.627
	c8.498-2.365,17.052-4.527,25.592-6.742c2.362-0.613,4.709-1.369,7.112-1.723c0.767-0.113,2.165,0.697,2.399,1.385
	c0.21,0.617-0.618,2.229-1.26,2.404C305.799,629.73,294.505,632.666,281.421,636.107z"/>
<path fill="#3E3E3E" d="M279.422,623.503c-0.362-0.338-1.725-1.236-1.597-1.561c0.403-1.055,1.193-2.447,2.122-2.721
	c6.242-1.816,12.556-3.393,18.851-5.021c4.458-1.154,8.9-2.402,13.408-3.312c0.902-0.182,2.076,0.984,3.124,1.531
	c-0.711,0.824-1.282,2.16-2.152,2.396c-10.725,2.9-21.49,5.645-32.245,8.426C280.669,623.308,280.397,623.335,279.422,623.503z"/>
<path fill="#3E3E3E" d="M285.491,646.523c-0.521-0.484-1.695-1.076-1.783-1.799c-0.091-0.752,0.721-2.182,1.396-2.369
	c8.882-2.445,17.798-4.768,26.745-6.961c0.726-0.18,2.191,0.623,2.477,1.314c0.245,0.594-0.538,2.289-1.152,2.461
	C304.167,641.673,295.112,644.001,285.491,646.523z"/>
<path fill="#3E3E3E" d="M287.413,658.988c-0.05-0.168-0.67-1.238-0.571-2.234c0.087-0.854,0.852-2.154,1.566-2.352
	c7.98-2.215,16-4.299,24.049-6.25c0.676-0.162,2.097,0.738,2.345,1.439c0.209,0.592-0.619,2.168-1.262,2.35
	C305.444,654.236,297.298,656.357,287.413,658.988z"/>
	<g class="third-hover">
<path fill="#3E3E3E" d="M874.949,575.533c12.479,12.176,24.392,23.797,35.178,34.324c-11.579,12.389-23.014,24.617-35.178,37.629
	C874.949,622.949,874.949,599.699,874.949,575.533z"/>

<path fill="#3E3E3E" d="M845.036,636.486c-7.623-8.789-14.641-16.883-21.831-25.172c7.202-8.305,14.224-16.398,21.537-24.834
	c8.083,8.746,15.981,17.293,23.371,25.289C861.301,619.068,853.362,627.568,845.036,636.486z"/>
<path fill="#3E3E3E" d="M872.721,611.324c-8.475-9.188-16.255-17.629-24.09-26.125c7.059-2.848,15.365-6.197,24.09-9.715
	C872.721,587.386,872.721,598.736,872.721,611.324z"/>
<path fill="#3E3E3E" d="M848.431,637.4c7.89-8.529,15.687-16.959,24.2-26.162c0,12.541,0,23.93,0,35.875
	C864.089,643.683,855.835,640.371,848.431,637.4z"/>
<path fill="#3E3E3E" d="M871.42,649.466c-14.159,2.15-28.317,4.301-42.198,6.408c5.209-5.506,10.385-11.037,15.67-16.463
	c0.502-0.518,1.838-0.74,2.539-0.465c8.059,3.156,16.069,6.438,24.093,9.688C871.488,648.912,871.453,649.189,871.42,649.466z"/>
<path fill="#3E3E3E" d="M871.365,574.105c-7.896,3.184-15.776,6.408-23.717,9.486c-0.803,0.311-2.321,0.09-2.881-0.488
	c-5.162-5.336-10.188-10.807-15.266-16.258c13.66,2.062,27.719,4.186,41.774,6.305C871.307,573.468,871.337,573.787,871.365,574.105
	z"/>
<path fill="#3E3E3E" d="M806.053,595.656c5.36,5.805,10.125,10.963,14.615,15.822c-4.396,4.605-9.242,9.682-14.615,15.309
	C806.053,616.289,806.053,606.507,806.053,595.656z"/>
</g>
<path class="default-show" fill="#3E3E3E" d="M549.086,503.042c-0.853,4.57-1.5,9.189-2.596,13.701c-2.744,11.303-7.922,21.482-15.073,30.617
	c-11.814,15.09-26.968,25.406-45.343,30.809c-11.901,3.5-24.082,5.008-36.508,3.83c-0.677-0.064-1.361-0.07-2.582-0.129
	c1.219,1.451,2.167,2.592,3.126,3.719c1.981,2.334,3.975,4.656,5.956,6.988c2.907,3.422,2.789,5.676-0.439,8.58
	c-0.767,0.002-1.532,0.004-2.299,0.006c-0.569-0.49-1.22-0.91-1.697-1.479c-6.668-7.898-13.313-15.816-19.964-23.73
	c-0.003-0.918-0.006-1.838-0.009-2.758c1.315-1.217,2.476-2.684,3.972-3.604c7.157-4.408,14.402-8.674,21.625-12.977
	c2.743-1.635,4.675-1.404,5.979,0.664c1.39,2.203,0.717,5.041-1.727,6.549c-4.228,2.607-8.523,5.104-12.786,7.654
	c-0.629,0.379-1.226,0.811-2.233,1.479c7.597,1.062,14.719,0.908,21.833,0.049c12.352-1.494,24.107-4.922,34.775-11.459
	c20.114-12.322,33.367-29.658,37.361-53.201c1.047-6.17,0.564-12.625,0.481-18.943c-0.034-2.58,0.353-4.645,2.578-6.107
	c0.765-0.002,1.532-0.004,2.297-0.006c2.048,1.328,2.595,3.367,2.74,5.639c0.076,1.186,0.329,2.359,0.501,3.541
	C549.067,495.998,549.075,499.517,549.086,503.042z"/>
<rect x="494.775" y="437.445" fill="none" width="215" height="40"/>
<text class="default-show" transform="matrix(1 0 0 1 497.2102 465.0142)" fill="#3E3E3E" font-family="'AYearWithoutRain'" font-size="36">Klicken Sie hier</text>
<g>
	<path fill="#3E3E3E" d="M282.372,714.695v2h-8.975v-2h3.55v-9.75c-0.15,0.2-0.384,0.412-0.7,0.638
		c-0.317,0.225-0.671,0.434-1.062,0.625s-0.796,0.354-1.212,0.487c-0.417,0.134-0.784,0.2-1.1,0.2v-2.101
		c0.367,0,0.775-0.104,1.225-0.312c0.45-0.208,0.879-0.449,1.288-0.725c0.408-0.275,0.758-0.541,1.05-0.8s0.462-0.438,0.513-0.538
		h2.25v12.275H282.372z"/>
	<path fill="#3E3E3E" d="M284.572,716.695v-2.8h1.85v2.8H284.572z"/>
	<path fill="#3E3E3E" d="M296.471,716.695v-17.75h11.725v2h-9.475v5.925h7.975v1.875h-7.975v7.95H296.471z"/>
	<path fill="#3E3E3E" d="M311.046,716.695v-17.75h2.25v15.75h9.9v2H311.046z"/>
	<path fill="#3E3E3E" d="M332.321,714.794c1.033,0,1.892-0.199,2.575-0.6c0.683-0.4,1.229-0.921,1.638-1.562
		c0.408-0.642,0.695-1.375,0.862-2.2c0.167-0.825,0.25-1.662,0.25-2.513v-8.975h2.25v8.975c0,1.2-0.138,2.338-0.413,3.413
		s-0.712,2.021-1.312,2.837c-0.6,0.817-1.379,1.463-2.337,1.938c-0.958,0.476-2.121,0.713-3.487,0.713
		c-1.417,0-2.609-0.25-3.575-0.75c-0.967-0.5-1.746-1.162-2.337-1.987c-0.592-0.825-1.017-1.775-1.275-2.851
		c-0.259-1.074-0.388-2.179-0.388-3.312v-8.975h2.25v8.975c0,0.884,0.087,1.738,0.263,2.562c0.175,0.825,0.466,1.555,0.875,2.188
		c0.408,0.634,0.95,1.146,1.625,1.538C330.459,714.599,331.304,714.794,332.321,714.794z"/>
	<path fill="#3E3E3E" d="M354.321,702.669c-0.2-0.232-0.467-0.458-0.8-0.675c-0.333-0.216-0.708-0.412-1.125-0.587
		c-0.417-0.176-0.871-0.316-1.362-0.426c-0.492-0.107-1.004-0.162-1.538-0.162c-1.384,0-2.396,0.259-3.038,0.775
		s-0.962,1.225-0.962,2.125c0,0.483,0.091,0.883,0.275,1.199c0.183,0.317,0.471,0.588,0.862,0.812
		c0.392,0.226,0.879,0.422,1.463,0.588c0.583,0.167,1.275,0.342,2.075,0.525c0.917,0.199,1.746,0.429,2.488,0.688
		c0.741,0.258,1.375,0.579,1.9,0.962c0.525,0.384,0.925,0.851,1.2,1.4c0.275,0.55,0.413,1.225,0.413,2.024
		c0,0.851-0.167,1.588-0.5,2.213s-0.788,1.142-1.362,1.55c-0.575,0.409-1.254,0.709-2.038,0.9c-0.784,0.191-1.634,0.287-2.55,0.287
		c-1.367,0-2.663-0.212-3.888-0.638c-1.225-0.425-2.337-1.045-3.337-1.862l1.075-1.899c0.267,0.283,0.613,0.566,1.038,0.85
		c0.425,0.283,0.908,0.537,1.45,0.763c0.542,0.225,1.125,0.408,1.75,0.55s1.279,0.213,1.962,0.213c1.267,0,2.25-0.226,2.95-0.676
		c0.7-0.449,1.05-1.125,1.05-2.024c0-0.5-0.112-0.921-0.337-1.263s-0.554-0.638-0.988-0.888s-0.971-0.471-1.612-0.662
		s-1.371-0.388-2.188-0.588c-0.9-0.216-1.692-0.45-2.375-0.7c-0.684-0.25-1.254-0.55-1.712-0.899
		c-0.458-0.351-0.804-0.775-1.038-1.275s-0.35-1.1-0.35-1.8c0-0.85,0.158-1.6,0.475-2.25c0.316-0.65,0.758-1.2,1.325-1.65
		c0.566-0.449,1.241-0.787,2.025-1.012c0.783-0.226,1.633-0.338,2.55-0.338c1.2,0,2.283,0.184,3.25,0.55
		c0.966,0.367,1.825,0.858,2.575,1.476L354.321,702.669z"/>
	<path fill="#3E3E3E" d="M371.92,700.945h-6.125v15.75h-2.25v-15.75h-6.125v-2h14.5V700.945z"/>
	<path fill="#3E3E3E" d="M374.47,716.695v-17.75h2.25v17.75H374.47z"/>
	<path fill="#3E3E3E" d="M381.421,698.945l5.4,7.4l5.4-7.4h2.475l-6.675,9l6.475,8.75h-2.475l-5.2-7.15l-5.2,7.15h-2.5l6.475-8.75
		l-6.675-9H381.421z"/>
</g>
<g>
	<path fill="#3E3E3E" d="M813.573,710.794c1.066,0.184,1.912,0.676,2.537,1.476s0.938,1.792,0.938,2.975
		c0,0.767-0.143,1.467-0.426,2.101c-0.283,0.633-0.688,1.175-1.212,1.625c-0.524,0.449-1.154,0.795-1.888,1.037
		c-0.733,0.241-1.55,0.362-2.449,0.362c-1.268,0-2.38-0.237-3.338-0.712c-0.959-0.476-1.705-1.146-2.238-2.013l1.476-1.476
		c0.384,0.684,0.899,1.221,1.55,1.613c0.65,0.391,1.5,0.587,2.551,0.587c1.149,0,2.053-0.259,2.712-0.774
		c0.658-0.518,0.987-1.301,0.987-2.351s-0.354-1.888-1.062-2.513s-1.737-0.938-3.088-0.938h-0.649v-1.85h0.7
		c1.199,0,2.121-0.287,2.762-0.862c0.643-0.575,0.963-1.304,0.963-2.188s-0.309-1.542-0.925-1.976
		c-0.616-0.433-1.392-0.649-2.325-0.649c-0.916,0-1.721,0.196-2.412,0.587c-0.691,0.393-1.229,0.938-1.613,1.638l-1.35-1.399
		c0.217-0.417,0.513-0.796,0.888-1.138s0.808-0.638,1.3-0.888s1.025-0.441,1.6-0.575c0.576-0.133,1.18-0.2,1.812-0.2
		c0.783,0,1.504,0.109,2.163,0.325c0.658,0.217,1.226,0.517,1.7,0.9s0.842,0.85,1.1,1.399c0.258,0.551,0.388,1.159,0.388,1.825
		c0,0.5-0.071,0.976-0.212,1.425c-0.143,0.45-0.351,0.859-0.625,1.226c-0.275,0.366-0.609,0.671-1,0.912
		C814.492,710.549,814.055,710.711,813.573,710.794z"/>
	<path fill="#3E3E3E" d="M819.722,716.695v-2.8h1.851v2.8H819.722z"/>
	<path fill="#3E3E3E" d="M846.971,716.695V702.97l-5.899,10.524h-1.275l-5.925-10.524v13.725h-2.25v-17.75h2.375l6.425,11.525
		l6.45-11.525h2.35v17.75H846.971z"/>
	<path fill="#3E3E3E" d="M858.871,698.945h1.899l7.25,17.75h-2.399l-2.101-5.2h-7.45l-2.074,5.2h-2.4L858.871,698.945z
		 M863.021,709.745l-3.2-8.2l-3.3,8.2H863.021z"/>
	<path fill="#3E3E3E" d="M870.396,716.695v-17.75h7.601c0.783,0,1.504,0.162,2.162,0.487s1.225,0.759,1.699,1.3
		c0.476,0.542,0.846,1.15,1.113,1.825c0.266,0.675,0.4,1.362,0.4,2.062c0,0.617-0.088,1.213-0.264,1.788
		c-0.174,0.574-0.424,1.096-0.75,1.562c-0.324,0.467-0.717,0.866-1.174,1.199c-0.459,0.334-0.972,0.575-1.538,0.726l4.3,6.8h-2.55
		l-4.05-6.375h-4.7v6.375H870.396z M872.646,708.32h5.375c0.466,0,0.888-0.1,1.263-0.3s0.695-0.471,0.963-0.812
		c0.266-0.342,0.475-0.737,0.625-1.188c0.149-0.45,0.225-0.917,0.225-1.4c0-0.5-0.088-0.971-0.263-1.412s-0.409-0.833-0.7-1.175
		s-0.633-0.608-1.025-0.801c-0.391-0.191-0.804-0.287-1.236-0.287h-5.226V708.32z"/>
	<path fill="#3E3E3E" d="M886.821,716.695V698.97h2.25v9.8l9.15-9.825h2.425l-7.125,7.825l7.524,9.925h-2.449l-6.45-8.625
		l-3.075,3.2v5.425H886.821z"/>
	<path fill="#3E3E3E" d="M915.92,700.945h-6.125v15.75h-2.25v-15.75h-6.125v-2h14.5V700.945z"/>
</g>
<g>
	<path fill="#3E3E3E" d="M547.097,75.695c0-0.666,0.054-1.291,0.162-1.875c0.108-0.583,0.312-1.142,0.613-1.675
		c0.3-0.533,0.712-1.042,1.237-1.525s1.212-0.966,2.062-1.45c0.5-0.266,1.008-0.528,1.525-0.787
		c0.517-0.258,0.988-0.533,1.413-0.825c0.425-0.291,0.775-0.604,1.05-0.938c0.275-0.333,0.412-0.725,0.412-1.175
		c0-0.283-0.066-0.566-0.2-0.85c-0.134-0.283-0.325-0.533-0.575-0.75s-0.562-0.392-0.938-0.525c-0.375-0.133-0.804-0.2-1.288-0.2
		c-0.5,0-0.954,0.071-1.362,0.213c-0.409,0.142-0.771,0.316-1.087,0.524c-0.317,0.209-0.592,0.43-0.825,0.663
		s-0.425,0.441-0.575,0.625l-1.425-1.601c0.133-0.149,0.358-0.354,0.675-0.612c0.316-0.258,0.716-0.521,1.2-0.787
		s1.042-0.496,1.675-0.688c0.633-0.191,1.341-0.288,2.125-0.288c0.766,0,1.458,0.104,2.075,0.312
		c0.617,0.209,1.138,0.496,1.562,0.863c0.425,0.366,0.754,0.796,0.988,1.287c0.233,0.492,0.35,1.013,0.35,1.562
		c0,0.65-0.142,1.217-0.425,1.7c-0.284,0.483-0.629,0.908-1.038,1.274c-0.409,0.367-0.846,0.68-1.312,0.938
		c-0.467,0.259-0.883,0.479-1.25,0.663s-0.779,0.404-1.237,0.662c-0.458,0.259-0.896,0.55-1.312,0.875
		c-0.417,0.325-0.779,0.688-1.087,1.088c-0.309,0.399-0.504,0.833-0.588,1.3h8.525v2H547.097z"/>
	<path fill="#3E3E3E" d="M560.997,75.695v-2.8h1.85v2.8H560.997z"/>
	<path fill="#3E3E3E" d="M572.896,75.695v-17.75h2.25v15.75h9.9v2H572.896z"/>
	<path fill="#3E3E3E" d="M592.896,57.945h1.9l7.25,17.75h-2.399l-2.101-5.2h-7.45l-2.075,5.2h-2.4L592.896,57.945z M597.046,68.745
		l-3.2-8.2l-3.3,8.2H597.046z"/>
	<path fill="#3E3E3E" d="M618.046,71.12c0,0.684-0.138,1.309-0.413,1.875c-0.274,0.567-0.649,1.05-1.125,1.45
		c-0.475,0.4-1.024,0.709-1.649,0.925c-0.625,0.217-1.296,0.325-2.013,0.325h-8.425v-17.75h8.825c0.616,0,1.175,0.134,1.675,0.4
		s0.925,0.612,1.274,1.037c0.351,0.425,0.621,0.908,0.812,1.45s0.288,1.087,0.288,1.638c0,0.883-0.222,1.699-0.663,2.449
		s-1.07,1.309-1.887,1.676c1.016,0.3,1.82,0.854,2.412,1.662S618.046,70.02,618.046,71.12z M606.671,59.895v5.925h5.649
		c0.4,0,0.768-0.079,1.101-0.237s0.62-0.371,0.862-0.638s0.434-0.579,0.575-0.938s0.212-0.737,0.212-1.138
		c0-0.416-0.066-0.808-0.199-1.175c-0.134-0.366-0.312-0.684-0.537-0.95c-0.226-0.267-0.5-0.475-0.826-0.625
		c-0.324-0.149-0.67-0.225-1.037-0.225H606.671z M615.772,70.72c0-0.4-0.072-0.788-0.213-1.163
		c-0.143-0.375-0.334-0.704-0.575-0.987s-0.529-0.508-0.862-0.675c-0.334-0.167-0.7-0.25-1.1-0.25h-6.351v6.1h6.175
		c0.416,0,0.801-0.083,1.15-0.25c0.35-0.166,0.658-0.388,0.925-0.662c0.267-0.275,0.476-0.596,0.625-0.963
		C615.696,71.503,615.772,71.12,615.772,70.72z"/>
	<path fill="#3E3E3E" d="M628.397,75.82c-1.25,0-2.389-0.254-3.413-0.763c-1.024-0.508-1.904-1.183-2.638-2.024
		s-1.3-1.805-1.699-2.888c-0.4-1.083-0.601-2.191-0.601-3.325c0-1.184,0.212-2.316,0.638-3.4c0.425-1.083,1.012-2.041,1.762-2.875
		c0.75-0.833,1.639-1.495,2.663-1.987c1.024-0.491,2.138-0.737,3.337-0.737c1.25,0,2.384,0.263,3.4,0.787
		c1.017,0.525,1.892,1.213,2.625,2.062c0.733,0.851,1.301,1.812,1.7,2.888s0.601,2.171,0.601,3.288c0,1.184-0.213,2.316-0.639,3.399
		c-0.424,1.084-1.008,2.038-1.75,2.862c-0.741,0.825-1.625,1.484-2.649,1.976S629.596,75.82,628.397,75.82z M622.321,66.82
		c0,0.9,0.146,1.771,0.438,2.612c0.292,0.842,0.705,1.588,1.238,2.237c0.533,0.65,1.175,1.167,1.925,1.551
		c0.75,0.383,1.583,0.574,2.5,0.574c0.95,0,1.8-0.203,2.55-0.612c0.75-0.408,1.388-0.941,1.912-1.6
		c0.525-0.658,0.926-1.404,1.201-2.237c0.274-0.834,0.412-1.676,0.412-2.525c0-0.9-0.146-1.771-0.438-2.612
		c-0.292-0.842-0.709-1.583-1.25-2.226c-0.542-0.641-1.184-1.153-1.926-1.537c-0.741-0.383-1.562-0.575-2.462-0.575
		c-0.95,0-1.8,0.2-2.55,0.601c-0.75,0.399-1.388,0.925-1.912,1.574c-0.525,0.65-0.93,1.393-1.213,2.226
		S622.321,65.954,622.321,66.82z"/>
	<path fill="#3E3E3E" d="M639.896,75.695v-17.75h7.601c0.783,0,1.504,0.162,2.162,0.487s1.225,0.759,1.699,1.3
		c0.476,0.542,0.846,1.15,1.113,1.825c0.266,0.675,0.4,1.362,0.4,2.062c0,0.617-0.088,1.213-0.264,1.788
		c-0.174,0.574-0.424,1.096-0.75,1.562c-0.324,0.467-0.717,0.866-1.174,1.199c-0.459,0.334-0.972,0.575-1.538,0.726l4.3,6.8h-2.55
		l-4.05-6.375h-4.7v6.375H639.896z M642.146,67.32h5.375c0.466,0,0.888-0.1,1.263-0.3s0.695-0.471,0.963-0.812
		c0.266-0.342,0.475-0.737,0.625-1.188c0.149-0.45,0.225-0.917,0.225-1.4c0-0.5-0.088-0.971-0.263-1.412s-0.409-0.833-0.7-1.175
		s-0.633-0.608-1.025-0.801c-0.391-0.191-0.804-0.287-1.236-0.287h-5.226V67.32z"/>
</g>
</svg>
