<?xml version="1.0" encoding="UTF-8" standalone="no"?><!DOCTYPE svg PUBLIC "-//W3C//DTD SVG 1.1//EN" "http://www.w3.org/Graphics/SVG/1.1/DTD/svg11.dtd">
<svg width="100%" height="100vh" viewBox="200 0 750 841.89" version="1.1" xmlns="http://www.w3.org/2000/svg" xmlns:xlink="http://www.w3.org/1999/xlink" xml:space="preserve" style="fill-rule:evenodd;clip-rule:evenodd;stroke-linejoin:round;stroke-miterlimit:1.41421;">
    <path class="first-hover" d="M331.366,668.984c1.39,-0.379 2.782,-0.73 4.159,-1.146c6.661,-2 10.622,-8.125 8.921,-14.865c-5.253,-20.834 -10.661,-41.631 -16.252,-62.377c-1.85,-6.859 -7.938,-10.104 -14.955,-8.691c-4.055,0.812 -8.014,2.846 -12.271,0.963c-1.543,-0.684 -3.234,-1.197 -4.549,-2.195c-5.646,-4.295 -13.062,-2.488 -16.171,3.82c-1.152,2.34 -3.062,4.309 -5.089,6.15c-1.042,-9.396 -1.814,-18.342 5.712,-25.674c3.87,-3.768 6.919,-8.389 10.238,-12.701c2.077,-2.693 4.682,-3.902 8.088,-3.896c24.64,0.049 49.274,0.047 73.912,0.002c3.393,-0.006 6.003,1.143 8.104,3.854c4.248,5.488 8.982,10.641 12.812,16.396c2.064,3.104 3.725,7.166 3.768,10.814c0.312,26.537 0.183,53.084 0.154,79.633c-0.006,6.572 -3.294,10.611 -9.214,10.658c-19.046,0.145 -38.094,0.057 -57.141,0.057c-0.068,-0.271 -0.145,-0.536 -0.226,-0.802Zm49.058,-110.906c-2.193,-4.48 -4.809,-6.074 -9.096,-6.039c-23.546,0.184 -47.095,0.176 -70.643,0.006c-4.354,-0.031 -6.729,1.797 -8.644,6.162c10.747,0 20.961,0 31.222,0c-1.136,4.576 -3.821,5.531 -7.748,5.396c-8.022,-0.273 -16.061,-0.086 -24.09,-0.078c-5.073,0.002 -5.952,0.627 -8.139,5.719c35.336,0 70.688,0 106.104,0c-1.938,-4.697 -5.11,-6.049 -9.806,-5.83c-8.422,0.391 -16.88,-0.084 -25.312,0.195c-3.932,0.129 -5.813,-1.141 -5.809,-5.529c10.483,-0.002 20.895,-0.002 31.961,-0.002Z" style="fill:#3e3e3e;fill-rule:nonzero;"/>
    <path class="second-hover" d="M609.96,139.886c3.127,2.564 6.51,5.37 9.934,8.126c0.832,0.669 1.74,1.299 2.711,1.727c28.205,12.402 38.947,42.459 24.896,69.717c-0.312,0.602 -0.598,1.216 -1.099,2.243c8.413,4.397 7.644,12.35 7.175,19.977c-0.083,1.345 -2.306,2.673 -3.729,3.762c-0.521,0.396 -1.586,0.079 -2.402,0.079c-32.273,0.001 -64.553,0.004 -96.829,-0.001c-5.792,-0.001 -6.298,-0.519 -6.314,-6.282c-0.004,-1.09 -0.002,-2.179 0,-3.269c0.019,-9.243 2.832,-12.986 11.965,-15.656c0,-1.635 0,-3.349 0,-5.782c-2.643,0 -5.373,0.372 -7.923,-0.144c-1.458,-0.294 -2.622,-2.035 -3.918,-3.124c1.271,-0.99 2.523,-2.819 3.812,-2.839c13.615,-0.211 27.236,-0.224 40.854,0.007c1.271,0.021 2.507,2.086 3.761,3.202c-1.259,0.967 -2.411,2.515 -3.8,2.771c-2.467,0.456 -5.079,0.128 -7.844,0.128c0,2.225 0,3.931 0,5.314c10.075,0 20.133,1.158 29.784,-0.32c9.974,-1.527 15.922,-9.166 17.774,-19.103c1.857,-9.951 -1.562,-18.19 -9.585,-24.48c-1.995,-1.564 -3.662,-1.952 -6.198,-0.636c-7.019,3.641 -13.7,2.173 -20.271,-2.782c-1.881,3.821 -3.705,7.412 -5.422,11.051c-1.396,2.957 -3.334,3.594 -6.251,2.035c-5.042,-2.694 -10.137,-5.301 -15.271,-7.805c-3.166,-1.543 -3.562,-3.558 -2.055,-6.616c7.717,-15.613 15.277,-31.303 23.04,-46.894c0.683,-1.372 2.304,-2.404 3.688,-3.273c2.519,-1.577 3.807,-3.438 2.823,-6.529c-0.334,-1.055 -0.449,-2.463 -0.021,-3.427c1.813,-4.104 3.817,-8.126 5.858,-12.125c1.121,-2.198 2.883,-2.676 5.127,-1.514c5.438,2.815 10.896,5.595 16.361,8.359c2.528,1.28 3.244,3.102 1.954,5.691c-1.819,3.654 -3.478,7.397 -5.455,10.961c-0.649,1.169 -2.213,1.792 -3.146,2.855c-1.314,1.511 -3.125,3.057 -3.489,4.84c-0.648,3.176 -0.382,6.542 -0.495,9.756Zm-4.991,12.719c-3.104,0.084 -5.869,3.058 -5.801,6.239c0.068,3.282 2.812,5.922 6.072,5.85c3.231,-0.072 5.92,-2.894 5.83,-6.121c-0.082,-3.145 -3.054,-6.05 -6.101,-5.968Z" style="fill:#3e3e3e;fill-rule:nonzero;"/>
    <path class="first-hover" d="M306.906,589.462c0.104,-0.088 0.194,-0.219 0.314,-0.258c9.577,-3.062 14.353,-4.885 17.578,9.156c4.136,18.014 9.186,35.814 13.812,53.721c1.618,6.258 -0.098,9.35 -6.208,10.959c-14.594,3.848 -29.197,7.645 -43.818,11.385c-5.688,1.455 -8.912,-0.428 -10.395,-6.062c-5.104,-19.465 -10.166,-38.939 -15.186,-58.424c-1.649,-6.408 0.171,-9.402 6.536,-11.102c1.819,-0.486 3.673,-0.863 5.425,-1.27c4.21,6.498 5.708,7.047 13.216,5.061c3.549,-0.938 7.11,-1.828 10.659,-2.764c6.89,-1.808 8.266,-3.593 8.067,-10.402Zm-21.537,78.539c15.88,-4.143 31.328,-8.172 46.979,-12.254c-4.745,-18.209 -9.332,-35.814 -13.99,-53.697c-15.869,4.139 -31.327,8.17 -46.979,12.252c4.739,18.194 9.326,35.802 13.99,53.699Z" style="fill:#3e3e3e;fill-rule:nonzero;"/>
    <path class="third-hover" d="M858.637,682.417c-1.232,-0.602 -2.986,-0.875 -3.488,-1.816c-1.488,-2.783 -4.021,-2.877 -6.527,-3.264c-29.952,-4.623 -52.645,-27.801 -56.729,-57.801c-0.202,-1.479 -1.298,-3.047 -2.405,-4.146c-2.55,-2.529 -2.515,-5.607 0.07,-8.172c1.104,-1.092 2.141,-2.691 2.344,-4.184c4.093,-30.092 27.045,-53.293 57.198,-57.869c2.048,-0.312 4.123,-1.562 5.811,-2.863c2.574,-1.979 4.731,-2.053 7.339,-0.09c1.717,1.289 3.75,2.619 5.797,2.935c30.688,4.706 53.156,27.646 57.319,58.591c0.165,1.223 1.257,2.506 2.243,3.396c2.897,2.629 2.854,5.699 0.021,8.398c-1.11,1.061 -2.146,2.709 -2.315,4.188c-3.271,28.285 -26.627,52.812 -54.842,57.381c-3.284,0.529 -6.755,0.367 -8.783,3.9c-0.431,0.747 -1.874,0.903 -3.053,1.416Zm-64.976,-64.525c0.082,1.055 0.101,1.324 0.123,1.598c2.819,28.443 28.786,54.092 57.225,56.383c1.059,0.086 2.469,-0.707 3.267,-1.525c2.979,-3.059 5.74,-3.059 8.713,0c0.795,0.818 2.206,1.609 3.264,1.521c28.387,-2.347 54.271,-27.734 57.056,-55.994c0.139,-1.424 -0.661,-3.314 -1.66,-4.4c-2.688,-2.928 -3.094,-5.734 0.014,-7.994c2.214,-1.604 1.935,-3.35 1.659,-5.32c-3.929,-28.695 -27.593,-51.9 -56.479,-55.244c-1.232,-0.146 -2.963,0.729 -3.871,1.688c-2.736,2.895 -6.049,2.88 -8.746,-0.092c-0.817,-0.896 -2.377,-1.762 -3.502,-1.653c-28.759,2.769 -53.854,27.589 -56.831,56.224c-0.134,1.289 0.656,3.047 1.604,4.008c3.062,3.104 3.067,5.467 -0.267,8.627c-0.788,0.728 -1.283,1.765 -1.569,2.173Z" style="fill:#3e3e3e;fill-rule:nonzero;"/>
    <path d="M536.787,179.382c-1.479,0.451 -2.947,0.955 -4.445,1.344c-88.914,23.114 -152.317,76.777 -191.274,159.713c-1.294,2.756 -2.562,5.014 0.483,8.195c4.138,4.323 0.714,11.578 -5.443,11.979c-2.886,0.188 -3.604,1.49 -4.34,3.708c-12.562,38.01 -17.501,76.956 -13.121,116.772c1.719,15.633 5.363,31.055 8.139,46.568c0.191,1.062 0.476,2.117 0.646,3.186c0.027,0.16 -0.3,0.377 -0.854,1.021c-0.529,-1.256 -1.095,-2.238 -1.377,-3.295c-7.997,-29.965 -11.188,-60.398 -9.29,-91.398c1.562,-25.426 6.438,-50.148 14.438,-74.312c0.461,-1.392 -0.143,-3.59 -1.021,-4.889c-3.378,-4.99 -1.354,-11.609 4.5,-12.427c3.095,-0.432 4.047,-1.943 5.062,-4.253c21.849,-49.762 55.25,-90.009 99.957,-120.837c28.65,-19.759 60.021,-33.523 93.855,-41.677c0.927,-0.223 1.865,-0.396 2.812,-0.514c0.364,-0.046 0.756,0.13 1.135,0.205c0.045,0.304 0.091,0.608 0.138,0.911Z" style="fill:#3e3e3e;fill-rule:nonzero;"/>
    <path d="M668.003,179.926c1.143,0.208 2.312,0.321 3.426,0.637c86.358,24.554 148.354,77.653 186.203,159.017c1.395,2.998 2.135,5.757 6.763,6.063c5.757,0.381 8.125,8.027 4.044,12.29c-2.123,2.218 -2.041,3.923 -1.195,6.43c10.729,31.797 15.482,64.512 14.564,98.029c-0.609,22.262 -3.75,44.186 -9.648,65.688c-0.327,1.201 -0.832,2.355 -1.255,3.533c-0.396,-0.102 -0.792,-0.199 -1.188,-0.3c0.271,-1.315 0.484,-2.647 0.838,-3.942c6.989,-25.943 10.104,-52.371 9.508,-79.201c-0.637,-28.626 -5.428,-56.574 -14.539,-83.753c-0.738,-2.202 -1.525,-3.468 -4.279,-3.898c-5.948,-0.931 -8.434,-7.514 -4.604,-12.214c1.803,-2.212 1.391,-3.779 0.446,-5.839c-37.231,-81.286 -98.521,-134.798 -184.489,-159.821c-1.615,-0.471 -3.242,-0.9 -4.862,-1.348c0.086,-0.46 0.173,-0.916 0.267,-1.371Z" style="fill:#3e3e3e;fill-rule:nonzero;"/>
    <path d="M607.566,737.688c-1.551,5.651 -4.076,8.095 -8.129,8.091c-4.043,-0.002 -6.551,-2.432 -8.128,-8.084c-68.149,-2.562 -128.171,-25.895 -179.655,-70.521c0.26,-0.521 0.521,-1.047 0.779,-1.566c1.271,1.049 2.554,2.081 3.812,3.146c43.699,37.029 94.054,58.732 150.905,65.351c6.889,0.804 13.843,1.038 20.762,1.604c2.296,0.188 3.912,-0.174 5.474,-2.361c3.098,-4.344 8.974,-4.297 12.165,0.027c1.455,1.973 2.903,2.381 5.105,2.268c67.787,-3.467 126.996,-27.707 177.465,-73.166c0.498,-0.445 1.027,-0.859 1.541,-1.291c0.275,0.234 0.555,0.473 0.827,0.705c-0.909,1.121 -1.684,2.393 -2.746,3.341c-27.834,24.875 -59.289,43.666 -94.479,56.188c-26.604,9.467 -54.049,14.576 -82.211,16.014c-1.08,0.052 -2.157,0.155 -3.487,0.254Z" style="fill:#3e3e3e;fill-rule:nonzero;"/>
    <path d="M282.128,601.531c-1.131,-1.197 -3.118,-2.359 -3.304,-3.76c-0.188,-1.424 1.045,-3.965 2.275,-4.457c2.762,-1.105 4.084,-2.32 4.155,-5.51c0.029,-1.322 2.099,-3.357 3.546,-3.678c1.444,-0.314 4.058,0.646 4.773,1.863c1.574,2.682 3.292,2.795 6.03,2.465c1.328,-0.16 3.729,1.479 4.138,2.777c0.399,1.273 -0.733,4.221 -1.825,4.594c-6.256,2.141 -12.705,3.733 -19.788,5.706Z" style="fill:#3e3e3e;fill-rule:nonzero;"/>
    <path d="M281.421,636.107c-0.029,-0.109 -0.743,-1.279 -0.482,-2.162c0.309,-1.035 1.312,-2.359 2.271,-2.627c8.498,-2.365 17.052,-4.527 25.592,-6.742c2.36,-0.613 4.709,-1.369 7.11,-1.725c0.769,-0.111 2.165,0.697 2.399,1.387c0.21,0.617 -0.618,2.229 -1.26,2.402c-11.252,3.09 -22.546,6.026 -35.63,9.467Z" style="fill:#3e3e3e;fill-rule:nonzero;"/>
    <path d="M279.422,623.503c-0.362,-0.338 -1.727,-1.236 -1.597,-1.561c0.401,-1.057 1.191,-2.447 2.12,-2.723c6.242,-1.814 12.558,-3.393 18.853,-5.021c4.458,-1.154 8.898,-2.402 13.406,-3.312c0.902,-0.182 2.076,0.984 3.124,1.531c-0.711,0.824 -1.28,2.16 -2.15,2.396c-10.725,2.898 -21.49,5.645 -32.245,8.426c-0.264,0.069 -0.536,0.096 -1.511,0.264Z" style="fill:#3e3e3e;fill-rule:nonzero;"/>
    <path d="M285.491,646.523c-0.521,-0.484 -1.695,-1.076 -1.783,-1.801c-0.091,-0.752 0.721,-2.182 1.396,-2.367c8.882,-2.445 17.798,-4.77 26.745,-6.963c0.726,-0.18 2.189,0.623 2.477,1.314c0.245,0.594 -0.538,2.289 -1.15,2.461c-9.009,2.506 -18.064,4.834 -27.685,7.356Z" style="fill:#3e3e3e;fill-rule:nonzero;"/>
    <path d="M287.413,658.988c-0.052,-0.168 -0.67,-1.238 -0.571,-2.234c0.087,-0.854 0.852,-2.154 1.566,-2.352c7.979,-2.217 16,-4.301 24.047,-6.25c0.678,-0.162 2.099,0.736 2.347,1.438c0.209,0.592 -0.619,2.168 -1.264,2.352c-8.094,2.294 -16.24,4.415 -26.125,7.046Z" style="fill:#3e3e3e;fill-rule:nonzero;"/>
    <g class="third-hover">
    <path d="M874.948,575.533c12.479,12.176 24.394,23.797 35.18,34.324c-11.579,12.389 -23.016,24.615 -35.18,37.629c0,-24.537 0,-47.787 0,-71.953Z" style="fill:#3e3e3e;fill-rule:nonzero;"/>
    <path d="M845.034,636.486c-7.623,-8.789 -14.641,-16.883 -21.831,-25.172c7.202,-8.307 14.226,-16.398 21.537,-24.834c8.083,8.744 15.981,17.293 23.371,25.289c-6.81,7.299 -14.749,15.799 -23.077,24.717Z" style="fill:#3e3e3e;fill-rule:nonzero;"/>
    <path d="M872.721,611.324c-8.477,-9.188 -16.255,-17.629 -24.09,-26.125c7.059,-2.85 15.363,-6.197 24.09,-9.715c0,11.902 0,23.252 0,35.84Z" style="fill:#3e3e3e;fill-rule:nonzero;"/>
    <path d="M848.431,637.4c7.89,-8.529 15.687,-16.959 24.2,-26.162c0,12.541 0,23.93 0,35.875c-8.542,-3.43 -16.796,-6.742 -24.2,-9.713Z" style="fill:#3e3e3e;fill-rule:nonzero;"/>
    <path d="M871.42,649.466c-14.159,2.15 -28.317,4.301 -42.198,6.408c5.209,-5.506 10.385,-11.037 15.67,-16.463c0.502,-0.52 1.838,-0.74 2.539,-0.465c8.059,3.154 16.069,6.438 24.093,9.688c-0.036,0.278 -0.073,0.555 -0.104,0.832Z" style="fill:#3e3e3e;fill-rule:nonzero;"/>
    <path d="M871.365,574.105c-7.896,3.184 -15.774,6.406 -23.717,9.484c-0.803,0.312 -2.321,0.09 -2.881,-0.487c-5.162,-5.337 -10.188,-10.808 -15.266,-16.259c13.658,2.062 27.719,4.188 41.772,6.307c0.034,0.318 0.064,0.637 0.092,0.955Z" style="fill:#3e3e3e;fill-rule:nonzero;"/>
    <path d="M806.053,595.656c5.358,5.805 10.125,10.963 14.615,15.822c-4.396,4.604 -9.242,9.682 -14.615,15.309c0,-10.498 0,-20.28 0,-31.131Z" style="fill:#3e3e3e;fill-rule:nonzero;"/>
    </g>

    <g class="default-show">
    <path d="M372.675,505.112c-0.155,0.106 -0.338,0.174 -0.55,0.203c-0.213,0.028 -0.415,0.004 -0.607,-0.072c-0.193,-0.078 -0.309,-0.26 -0.347,-0.549c0.076,-1.179 0.164,-2.287 0.26,-3.328c0.096,-1.041 0.178,-2.068 0.246,-3.08c0.066,-1.014 0.125,-2.051 0.174,-3.111c0.048,-1.061 0.062,-2.208 0.043,-3.441c-0.02,-1.234 -0.078,-2.585 -0.174,-4.052c-0.097,-1.466 -0.231,-3.113 -0.405,-4.945c0.135,-0.271 0.323,-0.439 0.564,-0.507c0.24,-0.068 0.481,-0.082 0.723,-0.045c0.241,0.039 0.449,0.116 0.622,0.232c0.174,0.115 0.261,0.221 0.261,0.318l0.289,9.864c0.752,-0.153 1.523,-0.584 2.314,-1.286c0.791,-0.705 1.552,-1.554 2.285,-2.548c0.733,-0.992 1.403,-2.054 2.012,-3.182c0.606,-1.129 1.094,-2.204 1.461,-3.227c0.328,-0.349 0.65,-0.443 0.969,-0.289c0.318,0.153 0.525,0.491 0.622,1.013c-0.135,0.694 -0.405,1.442 -0.81,2.242c-0.405,0.8 -0.883,1.597 -1.433,2.387c-0.55,0.791 -1.143,1.562 -1.778,2.314c-0.637,0.752 -1.259,1.428 -1.866,2.023c-0.607,0.6 -1.171,1.105 -1.692,1.521c-0.521,0.415 -0.945,0.68 -1.272,0.796c0.713,0.636 1.537,1.335 2.474,2.097c0.936,0.764 1.866,1.559 2.792,2.387c0.926,0.83 1.789,1.681 2.589,2.547c0.8,0.867 1.422,1.707 1.866,2.519c0.038,0.211 0.019,0.418 -0.059,0.621c-0.076,0.203 -0.197,0.352 -0.361,0.449c-0.164,0.096 -0.357,0.129 -0.579,0.102c-0.222,-0.029 -0.448,-0.16 -0.68,-0.391c-0.579,-0.617 -1.221,-1.336 -1.925,-2.156c-0.705,-0.82 -1.446,-1.646 -2.228,-2.473c-0.781,-0.83 -1.577,-1.611 -2.387,-2.345c-0.811,-0.733 -1.62,-1.321 -2.431,-1.766l-0.81,8.854c0.04,0.097 -0.019,0.199 -0.172,0.304Z" style="fill:#3e3e3e;fill-rule:nonzero;"/><path d="M385.926,504.491c0.039,-1.332 0.039,-2.865 0,-4.601c-0.039,-1.736 -0.087,-3.539 -0.146,-5.409c-0.058,-1.871 -0.116,-3.742 -0.174,-5.613c-0.058,-1.871 -0.086,-3.617 -0.086,-5.236c-0.039,-0.213 0.029,-0.42 0.202,-0.623c0.174,-0.201 0.371,-0.347 0.593,-0.434c0.222,-0.086 0.438,-0.086 0.651,0c0.212,0.087 0.337,0.305 0.376,0.65c0.097,3.049 0.178,5.694 0.246,7.941c0.066,2.247 0.125,4.167 0.174,5.757c0.048,1.592 0.091,2.89 0.13,3.894c0.039,1.002 0.072,1.793 0.102,2.371c0.029,0.579 0.054,0.983 0.072,1.215c0.02,0.231 0.048,0.356 0.086,0.377c-0.23,0.192 -0.477,0.321 -0.738,0.391c-0.26,0.066 -0.501,0.086 -0.723,0.06c-0.222,-0.029 -0.405,-0.107 -0.55,-0.232c-0.144,-0.127 -0.215,-0.295 -0.215,-0.508Z" style="fill:#3e3e3e;fill-rule:nonzero;"/><path d="M390.641,482.792c0.405,0 0.694,0.098 0.868,0.29c0.173,0.192 0.26,0.473 0.26,0.839c0,0.289 -0.101,0.521 -0.304,0.694c-0.203,0.173 -0.439,0.304 -0.709,0.391c-0.271,0.087 -0.54,0.146 -0.811,0.173c-0.27,0.029 -0.473,0.044 -0.606,0.044c0,-0.289 0.004,-0.579 0.015,-0.867c0.009,-0.289 0.053,-0.55 0.13,-0.781c0.077,-0.23 0.203,-0.419 0.376,-0.564c0.173,-0.145 0.434,-0.219 0.781,-0.219Zm-1.07,6.163c0.077,-0.29 0.212,-0.511 0.405,-0.665c0.192,-0.154 0.395,-0.251 0.606,-0.29c0.213,-0.038 0.4,-0.02 0.564,0.058c0.164,0.078 0.265,0.193 0.304,0.349c0.02,1.119 0.024,2.344 0.016,3.674c-0.011,1.331 -0.021,2.691 -0.029,4.08c-0.01,1.389 0,2.762 0.029,4.123c0.028,1.358 0.101,2.637 0.217,3.832c-0.039,0.231 -0.146,0.434 -0.318,0.606c-0.174,0.174 -0.372,0.291 -0.593,0.349c-0.222,0.059 -0.444,0.039 -0.666,-0.058c-0.222,-0.098 -0.4,-0.299 -0.535,-0.608l0,-15.45l0,0Z" style="fill:#3e3e3e;fill-rule:nonzero;"/><path d="M393.157,494.829c0,-0.656 0.054,-1.396 0.159,-2.215c0.105,-0.819 0.318,-1.586 0.636,-2.3c0.318,-0.715 0.757,-1.312 1.316,-1.795c0.559,-0.48 1.302,-0.723 2.228,-0.723c0.579,0 1.124,0.105 1.636,0.318c0.511,0.212 0.955,0.511 1.331,0.896c0.376,0.388 0.675,0.839 0.896,1.359c0.221,0.521 0.333,1.081 0.333,1.678c-0.54,0 -0.965,-0.104 -1.272,-0.316c-0.31,-0.212 -0.59,-0.448 -0.84,-0.709c-0.251,-0.262 -0.496,-0.497 -0.737,-0.709c-0.242,-0.213 -0.556,-0.317 -0.94,-0.317c-0.693,0 -1.215,0.173 -1.562,0.52c-0.348,0.349 -0.599,0.771 -0.752,1.273c-0.155,0.502 -0.236,1.027 -0.246,1.576c-0.011,0.551 -0.015,1.037 -0.015,1.463c0,0.424 0.024,0.916 0.072,1.475c0.048,0.56 0.14,1.133 0.275,1.722c0.135,0.59 0.308,1.161 0.521,1.723c0.212,0.559 0.482,1.061 0.811,1.504c0.327,0.443 0.718,0.801 1.172,1.07c0.453,0.27 0.979,0.403 1.577,0.403c0.308,0 0.578,-0.062 0.81,-0.188c0.232,-0.126 0.458,-0.271 0.68,-0.434c0.222,-0.164 0.453,-0.31 0.694,-0.435c0.241,-0.125 0.516,-0.188 0.824,-0.188c0,0.463 -0.121,0.907 -0.361,1.332c-0.242,0.424 -0.545,0.791 -0.912,1.1c-0.367,0.309 -0.781,0.555 -1.244,0.736c-0.463,0.184 -0.906,0.274 -1.331,0.274c-0.675,0 -1.288,-0.184 -1.837,-0.549c-0.549,-0.367 -1.037,-0.84 -1.461,-1.418c-0.424,-0.578 -0.791,-1.234 -1.099,-1.967c-0.31,-0.734 -0.564,-1.478 -0.767,-2.229c-0.203,-0.751 -0.353,-1.471 -0.448,-2.155c-0.099,-0.681 -0.147,-1.275 -0.147,-1.775Z" style="fill:#3e3e3e;fill-rule:nonzero;"/><path d="M404.122,503.651c0.271,-1.64 0.438,-3.336 0.507,-5.093c0.066,-1.754 0.097,-3.504 0.087,-5.25c-0.011,-1.746 -0.043,-3.467 -0.102,-5.164c-0.058,-1.696 -0.067,-3.317 -0.028,-4.86c0,-0.271 0.082,-0.474 0.246,-0.607c0.163,-0.135 0.352,-0.217 0.563,-0.246c0.212,-0.028 0.415,0 0.607,0.087c0.191,0.088 0.308,0.229 0.347,0.42c0.096,2.47 0.197,4.407 0.304,5.815c0.107,1.408 0.203,2.459 0.29,3.152c0.086,0.694 0.159,1.129 0.217,1.303c0.059,0.174 0.097,0.26 0.116,0.26c0.463,-0.442 0.829,-0.795 1.099,-1.056c0.271,-0.261 0.521,-0.496 0.753,-0.709c0.23,-0.212 0.478,-0.438 0.737,-0.68c0.26,-0.242 0.607,-0.563 1.042,-0.971c0.435,-0.403 0.998,-0.93 1.692,-1.576c0.693,-0.646 1.582,-1.479 2.662,-2.502c0.153,-0.135 0.309,-0.174 0.463,-0.115c0.154,0.058 0.27,0.184 0.347,0.376c0.077,0.192 0.097,0.434 0.059,0.723c-0.039,0.29 -0.175,0.59 -0.405,0.897l-7.812,8.158c0.694,0.888 1.49,1.711 2.388,2.474c0.896,0.762 1.76,1.424 2.589,1.981c0.829,0.56 1.552,1.013 2.169,1.359c0.617,0.346 1.003,0.551 1.158,0.606c0.48,0.115 0.795,0.271 0.939,0.464c0.146,0.192 0.193,0.387 0.146,0.577c-0.049,0.193 -0.159,0.354 -0.333,0.479c-0.173,0.125 -0.337,0.178 -0.492,0.158c-0.849,-0.019 -1.746,-0.23 -2.691,-0.638c-0.944,-0.403 -1.852,-0.913 -2.719,-1.532c-0.868,-0.617 -1.673,-1.308 -2.416,-2.068c-0.743,-0.76 -1.335,-1.508 -1.779,-2.242c0,0.078 0.005,0.275 0.016,0.594c0.009,0.318 0.009,0.703 0,1.156c-0.011,0.455 -0.029,0.941 -0.059,1.461c-0.028,0.521 -0.087,1.027 -0.174,1.521c-0.087,0.494 -0.198,0.936 -0.333,1.332c-0.135,0.395 -0.309,0.68 -0.521,0.852c-0.444,0.387 -0.796,0.479 -1.057,0.275c-0.259,-0.2 -0.467,-0.591 -0.622,-1.171Z" style="fill:#3e3e3e;fill-rule:nonzero;"/><path d="M415.32,491.559c0,-0.23 0.062,-0.429 0.188,-0.593c0.126,-0.164 0.27,-0.278 0.434,-0.348c0.164,-0.066 0.333,-0.082 0.506,-0.043c0.174,0.039 0.318,0.135 0.435,0.289c0.153,1.08 0.352,1.855 0.593,2.329c0.241,0.473 0.492,0.791 0.752,0.954c0.261,0.163 0.506,0.235 0.738,0.218c0.231,-0.019 0.415,0 0.55,0.058c0.058,-1.061 0.198,-2.028 0.419,-2.908c0.222,-0.877 0.569,-1.624 1.042,-2.241c0.473,-0.616 1.095,-1.095 1.866,-1.433c0.771,-0.337 1.746,-0.496 2.922,-0.477c0.887,0 1.635,0.201 2.242,0.606c0.607,0.404 0.912,1.09 0.912,2.055c0,1.062 -0.218,1.929 -0.651,2.604c-0.435,0.676 -1.003,1.235 -1.707,1.679c-0.705,0.443 -1.49,0.802 -2.358,1.07c-0.867,0.271 -1.735,0.531 -2.604,0.781c0,0.039 0.01,0.141 0.029,0.303c0.019,0.164 0.033,0.338 0.043,0.521c0.009,0.183 0.023,0.356 0.043,0.521c0.019,0.164 0.028,0.264 0.028,0.303c0.116,1.369 0.386,2.427 0.812,3.168c0.424,0.742 0.92,1.273 1.49,1.593c0.568,0.317 1.176,0.477 1.822,0.477c0.646,0 1.244,-0.062 1.793,-0.188c0.55,-0.125 1.008,-0.25 1.375,-0.377c0.366,-0.125 0.56,-0.148 0.579,-0.072c0.097,0.252 0.105,0.521 0.029,0.811c-0.077,0.289 -0.275,0.562 -0.593,0.812c-0.318,0.25 -0.786,0.459 -1.403,0.621c-0.618,0.164 -1.408,0.256 -2.373,0.274c-0.83,0 -1.533,-0.125 -2.112,-0.377c-0.579,-0.25 -1.07,-0.592 -1.476,-1.024c-0.405,-0.437 -0.729,-0.937 -0.969,-1.507c-0.241,-0.567 -0.439,-1.172 -0.594,-1.807c-0.153,-0.637 -0.288,-1.279 -0.404,-1.924c-0.116,-0.646 -0.231,-1.271 -0.348,-1.867c-0.502,0.078 -0.954,0.029 -1.359,-0.145c-0.405,-0.175 -0.768,-0.421 -1.085,-0.738c-0.318,-0.318 -0.594,-0.674 -0.825,-1.07c-0.231,-0.395 -0.414,-0.785 -0.549,-1.172c-0.136,-0.385 -0.223,-0.737 -0.261,-1.055c-0.039,-0.319 -0.03,-0.546 0.029,-0.681Zm6.219,2.488c0.599,0.038 1.244,-0.062 1.938,-0.304c0.694,-0.242 1.331,-0.55 1.909,-0.926c0.579,-0.377 1.051,-0.785 1.417,-1.23c0.366,-0.443 0.521,-0.856 0.463,-1.243c-0.039,-0.347 -0.183,-0.65 -0.435,-0.911c-0.25,-0.261 -0.655,-0.391 -1.215,-0.391c-0.675,0 -1.263,0.145 -1.765,0.434c-0.502,0.289 -0.926,0.671 -1.273,1.144c-0.347,0.473 -0.607,1.008 -0.78,1.604c-0.173,0.598 -0.259,1.206 -0.259,1.823Z" style="fill:#3e3e3e;fill-rule:nonzero;"/><path d="M430.885,487.899c0.174,-0.089 0.386,-0.146 0.637,-0.175c0.25,-0.028 0.496,-0.028 0.737,0c0.241,0.029 0.429,0.054 0.563,0.072c-0.02,0.135 -0.028,0.361 -0.028,0.68c0,0.319 0.009,0.689 0.028,1.113c0.02,0.425 0.053,0.863 0.102,1.316c0.048,0.454 0.11,0.873 0.188,1.259c0.366,-0.308 0.796,-0.685 1.288,-1.128c0.492,-0.443 1.013,-0.868 1.562,-1.273c0.549,-0.403 1.117,-0.747 1.707,-1.026c0.588,-0.279 1.161,-0.419 1.722,-0.419c0.636,0 1.176,0.164 1.62,0.49c0.442,0.328 0.818,0.743 1.128,1.244c0.308,0.502 0.544,1.042 0.708,1.621c0.164,0.578 0.285,1.109 0.362,1.591c0.019,0.098 0.033,0.372 0.043,0.825c0.009,0.453 0.019,1.008 0.028,1.662c0.011,0.656 0.02,1.371 0.029,2.143c0.01,0.772 0.029,1.519 0.058,2.242c0.029,0.724 0.059,1.394 0.087,2.01c0.029,0.617 0.062,1.091 0.102,1.419l0,0.317c0,0.328 -0.116,0.545 -0.347,0.65c-0.231,0.104 -0.482,0.16 -0.752,0.16c-0.231,0 -0.449,-0.021 -0.651,-0.06c-0.202,-0.039 -0.353,-0.213 -0.448,-0.521c-0.02,-0.23 -0.034,-0.625 -0.043,-1.187c-0.01,-0.559 -0.023,-1.205 -0.043,-1.938c-0.02,-0.734 -0.034,-1.5 -0.043,-2.302c-0.009,-0.801 -0.024,-1.565 -0.043,-2.301c-0.02,-0.731 -0.043,-1.379 -0.072,-1.938c-0.028,-0.561 -0.062,-0.955 -0.101,-1.188c-0.039,-0.271 -0.106,-0.568 -0.203,-0.896c-0.097,-0.327 -0.231,-0.631 -0.405,-0.91c-0.174,-0.279 -0.386,-0.518 -0.637,-0.709c-0.251,-0.193 -0.55,-0.289 -0.897,-0.289c-0.56,0 -1.118,0.192 -1.678,0.578c-0.56,0.386 -1.09,0.829 -1.591,1.33c-0.502,0.502 -0.95,0.994 -1.345,1.477c-0.396,0.482 -0.69,0.83 -0.882,1.041c0,0.578 -0.011,1.234 -0.029,1.967c-0.02,0.734 -0.043,1.486 -0.072,2.259c-0.029,0.771 -0.053,1.532 -0.072,2.284c-0.019,0.752 -0.02,1.429 0,2.025c0,0.193 -0.005,0.381 -0.014,0.564c-0.01,0.184 -0.049,0.354 -0.116,0.52c-0.067,0.164 -0.179,0.305 -0.333,0.42c-0.154,0.115 -0.376,0.213 -0.666,0.289c-0.153,0.039 -0.365,-0.01 -0.636,-0.145c-0.271,-0.136 -0.415,-0.271 -0.434,-0.404l-0.348,-16.318c-0.021,-0.204 0.056,-0.355 0.23,-0.441Z" style="fill:#3e3e3e;fill-rule:nonzero;"/><path d="M456.574,498.763c0,-0.385 0.034,-0.752 0.102,-1.1c0.066,-0.348 0.188,-0.65 0.361,-0.912c0.175,-0.26 0.405,-0.463 0.694,-0.607c0.29,-0.145 0.666,-0.217 1.128,-0.217c0,0.289 -0.034,0.57 -0.101,0.84c-0.068,0.271 -0.141,0.535 -0.218,0.796c-0.076,0.262 -0.148,0.53 -0.217,0.811c-0.067,0.279 -0.102,0.564 -0.102,0.854c0,0.56 0.13,1.091 0.391,1.593c0.262,0.502 0.604,0.92 1.027,1.258c0.423,0.338 0.896,0.574 1.417,0.709c0.521,0.135 1.032,0.125 1.533,-0.029c1.1,-0.229 1.885,-0.555 2.357,-0.969c0.474,-0.414 0.718,-0.902 0.738,-1.461c0.019,-0.56 -0.146,-1.176 -0.492,-1.853c-0.347,-0.676 -0.781,-1.389 -1.302,-2.141c-0.521,-0.752 -1.085,-1.533 -1.693,-2.344c-0.606,-0.812 -1.167,-1.621 -1.678,-2.432c-0.511,-0.81 -0.936,-1.609 -1.273,-2.4c-0.337,-0.791 -0.486,-1.553 -0.448,-2.285c0,-0.829 0.294,-1.514 0.883,-2.055c0.588,-0.539 1.302,-0.964 2.141,-1.272c0.839,-0.308 1.716,-0.524 2.633,-0.65c0.916,-0.125 1.702,-0.188 2.358,-0.188c0.27,0 0.516,0.058 0.738,0.174c0.222,0.115 0.333,0.337 0.333,0.665c0,0.328 -0.169,0.556 -0.506,0.681c-0.337,0.126 -0.768,0.217 -1.287,0.273c-0.521,0.059 -1.076,0.116 -1.664,0.174c-0.589,0.06 -1.144,0.174 -1.664,0.349c-0.521,0.174 -0.95,0.438 -1.288,0.795c-0.337,0.356 -0.506,0.873 -0.506,1.549c0,0.192 0.039,0.429 0.115,0.708c0.077,0.28 0.31,0.757 0.694,1.433c0.386,0.675 0.984,1.625 1.794,2.851c0.811,1.225 1.948,2.858 3.414,4.903c0.463,0.888 0.704,1.779 0.723,2.677c0.02,0.896 -0.168,1.707 -0.563,2.43c-0.395,0.723 -0.979,1.322 -1.75,1.795c-0.772,0.473 -1.707,0.719 -2.807,0.736c-0.868,0.098 -1.684,-0.029 -2.444,-0.375c-0.762,-0.349 -1.418,-0.824 -1.968,-1.435c-0.549,-0.606 -0.97,-1.297 -1.258,-2.067c-0.285,-0.778 -0.401,-1.53 -0.345,-2.262Z" style="fill:#3e3e3e;fill-rule:nonzero;"/><path d="M471.389,482.792c0.404,0 0.693,0.098 0.867,0.29c0.174,0.192 0.261,0.473 0.261,0.839c0,0.289 -0.103,0.521 -0.304,0.694c-0.202,0.173 -0.438,0.304 -0.709,0.391c-0.271,0.087 -0.54,0.146 -0.811,0.173c-0.271,0.029 -0.473,0.044 -0.606,0.044c0,-0.289 0.004,-0.579 0.014,-0.867c0.01,-0.289 0.053,-0.55 0.131,-0.781c0.076,-0.23 0.202,-0.419 0.376,-0.564c0.173,-0.147 0.433,-0.219 0.781,-0.219Zm-1.07,6.163c0.076,-0.29 0.212,-0.511 0.404,-0.665c0.191,-0.154 0.396,-0.251 0.606,-0.29c0.214,-0.038 0.4,-0.02 0.564,0.058c0.164,0.078 0.265,0.193 0.304,0.349c0.021,1.119 0.024,2.344 0.016,3.674c-0.011,1.331 -0.021,2.691 -0.029,4.08c-0.008,1.389 0,2.762 0.029,4.123c0.028,1.358 0.102,2.637 0.217,3.832c-0.039,0.231 -0.146,0.434 -0.318,0.606c-0.173,0.174 -0.371,0.291 -0.593,0.349c-0.222,0.059 -0.444,0.039 -0.665,-0.058c-0.223,-0.098 -0.401,-0.299 -0.535,-0.608l0,-15.45l0,0Z" style="fill:#3e3e3e;fill-rule:nonzero;"/><path d="M472.457,491.559c0,-0.23 0.063,-0.429 0.188,-0.593c0.126,-0.164 0.271,-0.278 0.434,-0.348c0.164,-0.066 0.333,-0.082 0.508,-0.043c0.174,0.039 0.317,0.135 0.434,0.289c0.154,1.08 0.352,1.855 0.593,2.329c0.241,0.473 0.492,0.791 0.753,0.954c0.261,0.163 0.506,0.235 0.737,0.218c0.23,-0.019 0.415,0 0.55,0.058c0.058,-1.061 0.197,-2.028 0.42,-2.908c0.222,-0.877 0.568,-1.624 1.041,-2.241c0.474,-0.616 1.095,-1.095 1.866,-1.433c0.771,-0.337 1.745,-0.496 2.922,-0.477c0.887,0 1.635,0.201 2.242,0.606c0.607,0.404 0.911,1.09 0.911,2.055c0,1.062 -0.217,1.929 -0.65,2.604c-0.435,0.676 -1.003,1.235 -1.707,1.679c-0.704,0.444 -1.489,0.802 -2.357,1.07c-0.867,0.271 -1.735,0.531 -2.604,0.781c0,0.039 0.01,0.141 0.029,0.303c0.019,0.164 0.033,0.338 0.043,0.521c0.01,0.183 0.023,0.356 0.044,0.521c0.019,0.164 0.028,0.264 0.028,0.303c0.115,1.369 0.386,2.427 0.811,3.168c0.424,0.742 0.921,1.273 1.489,1.593c0.569,0.317 1.177,0.477 1.823,0.477c0.646,0 1.243,-0.062 1.794,-0.188c0.55,-0.126 1.007,-0.25 1.374,-0.377c0.365,-0.125 0.56,-0.148 0.578,-0.072c0.097,0.252 0.105,0.521 0.028,0.811c-0.077,0.29 -0.273,0.562 -0.593,0.812c-0.32,0.25 -0.786,0.459 -1.403,0.621c-0.617,0.164 -1.407,0.256 -2.372,0.274c-0.83,0 -1.533,-0.125 -2.111,-0.377c-0.579,-0.25 -1.07,-0.592 -1.477,-1.024c-0.404,-0.437 -0.729,-0.937 -0.969,-1.507c-0.242,-0.567 -0.439,-1.172 -0.594,-1.807c-0.154,-0.637 -0.289,-1.279 -0.405,-1.924c-0.115,-0.646 -0.231,-1.271 -0.347,-1.867c-0.502,0.078 -0.955,0.029 -1.359,-0.145c-0.405,-0.175 -0.768,-0.421 -1.085,-0.738c-0.318,-0.318 -0.594,-0.674 -0.825,-1.07c-0.23,-0.395 -0.414,-0.785 -0.55,-1.172c-0.135,-0.385 -0.221,-0.737 -0.26,-1.055c-0.038,-0.319 -0.028,-0.546 0.028,-0.681Zm6.222,2.488c0.598,0.038 1.244,-0.062 1.938,-0.304c0.694,-0.242 1.331,-0.55 1.909,-0.926c0.579,-0.377 1.051,-0.785 1.418,-1.23c0.366,-0.443 0.521,-0.856 0.463,-1.243c-0.039,-0.347 -0.184,-0.65 -0.435,-0.911c-0.251,-0.261 -0.655,-0.391 -1.215,-0.391c-0.675,0 -1.265,0.145 -1.766,0.434c-0.502,0.289 -0.926,0.671 -1.272,1.144c-0.348,0.473 -0.607,1.008 -0.781,1.604c-0.172,0.598 -0.259,1.206 -0.259,1.823Z" style="fill:#3e3e3e;fill-rule:nonzero;"/><path d="M509.404,503.796c0.021,-0.307 0.029,-0.848 0.029,-1.619l0,-4.934c0,-0.783 -0.01,-1.326 -0.029,-1.635c-0.173,-1.445 -0.516,-2.497 -1.025,-3.152c-0.513,-0.656 -1.14,-1.037 -1.882,-1.144c-0.741,-0.105 -1.558,0.005 -2.443,0.332c-0.889,0.328 -1.794,0.752 -2.721,1.273l0.059,11.225c-0.115,0.154 -0.251,0.3 -0.405,0.435c-0.153,0.137 -0.328,0.223 -0.521,0.262c-0.193,0.039 -0.387,0.014 -0.578,-0.072c-0.193,-0.088 -0.387,-0.274 -0.579,-0.563l-0.146,-21.12c0,-0.212 0.098,-0.353 0.289,-0.42c0.192,-0.067 0.41,-0.087 0.651,-0.059c0.241,0.029 0.467,0.098 0.68,0.203c0.212,0.105 0.349,0.228 0.405,0.361l-0.087,7.608c0.23,-0.077 0.617,-0.245 1.157,-0.508c0.54,-0.26 1.162,-0.5 1.865,-0.723c0.704,-0.221 1.446,-0.371 2.229,-0.448c0.783,-0.077 1.519,0.028 2.213,0.318c0.675,0.347 1.22,0.858 1.635,1.533c0.415,0.675 0.738,1.433 0.971,2.271c0.23,0.84 0.391,1.724 0.477,2.648c0.087,0.926 0.131,1.822 0.131,2.688c0,0.869 -0.023,1.67 -0.072,2.402c-0.049,0.732 -0.092,1.32 -0.131,1.764l1.101,1.07c-0.077,0.328 -0.274,0.584 -0.594,0.768c-0.318,0.185 -0.655,0.285 -1.013,0.304c-0.356,0.02 -0.699,-0.058 -1.027,-0.23c-0.329,-0.172 -0.543,-0.451 -0.639,-0.838Z" style="fill:#3e3e3e;fill-rule:nonzero;"/><path d="M514.93,482.792c0.404,0 0.693,0.098 0.867,0.29c0.174,0.192 0.261,0.473 0.261,0.839c0,0.289 -0.103,0.521 -0.304,0.694c-0.202,0.173 -0.438,0.304 -0.709,0.391c-0.271,0.087 -0.54,0.146 -0.811,0.173c-0.271,0.029 -0.474,0.044 -0.606,0.044c0,-0.289 0.004,-0.579 0.014,-0.867c0.01,-0.289 0.053,-0.55 0.131,-0.781c0.076,-0.23 0.202,-0.419 0.376,-0.564c0.174,-0.145 0.432,-0.219 0.781,-0.219Zm-1.07,6.163c0.076,-0.29 0.212,-0.511 0.404,-0.665c0.191,-0.154 0.396,-0.251 0.606,-0.29c0.214,-0.038 0.4,-0.02 0.564,0.058c0.164,0.078 0.265,0.193 0.304,0.349c0.021,1.119 0.024,2.344 0.016,3.674c-0.011,1.331 -0.021,2.691 -0.029,4.08c-0.008,1.389 0,2.762 0.029,4.123c0.028,1.358 0.102,2.637 0.217,3.832c-0.039,0.231 -0.146,0.434 -0.318,0.606c-0.173,0.174 -0.371,0.291 -0.593,0.349c-0.222,0.059 -0.444,0.039 -0.665,-0.058c-0.223,-0.098 -0.401,-0.299 -0.535,-0.608l0,-15.45Z" style="fill:#3e3e3e;fill-rule:nonzero;"/><path d="M516,491.559c0,-0.23 0.062,-0.429 0.188,-0.593c0.126,-0.164 0.271,-0.278 0.434,-0.348c0.164,-0.066 0.333,-0.082 0.508,-0.043c0.174,0.039 0.317,0.135 0.434,0.289c0.154,1.08 0.352,1.855 0.593,2.329c0.241,0.473 0.492,0.791 0.753,0.954c0.261,0.163 0.506,0.235 0.737,0.218c0.231,-0.019 0.415,0 0.55,0.058c0.059,-1.061 0.197,-2.028 0.42,-2.908c0.222,-0.877 0.568,-1.624 1.041,-2.241c0.474,-0.616 1.096,-1.095 1.866,-1.433c0.771,-0.337 1.745,-0.496 2.922,-0.477c0.888,0 1.636,0.201 2.242,0.606c0.607,0.404 0.911,1.09 0.911,2.055c0,1.062 -0.217,1.929 -0.65,2.604c-0.435,0.676 -1.003,1.235 -1.707,1.679c-0.703,0.444 -1.489,0.802 -2.357,1.07c-0.867,0.271 -1.735,0.531 -2.604,0.781c0,0.039 0.011,0.141 0.029,0.303c0.019,0.164 0.033,0.338 0.043,0.521c0.01,0.183 0.024,0.356 0.044,0.521c0.02,0.165 0.028,0.264 0.028,0.303c0.116,1.369 0.386,2.427 0.811,3.168c0.424,0.742 0.921,1.273 1.489,1.593c0.569,0.317 1.177,0.477 1.823,0.477c0.646,0 1.244,-0.062 1.794,-0.188c0.55,-0.126 1.007,-0.25 1.374,-0.377c0.366,-0.125 0.56,-0.148 0.578,-0.072c0.097,0.252 0.105,0.521 0.028,0.811c-0.076,0.29 -0.273,0.562 -0.593,0.812c-0.32,0.25 -0.786,0.459 -1.403,0.621c-0.616,0.164 -1.407,0.256 -2.371,0.274c-0.83,0 -1.534,-0.125 -2.112,-0.377c-0.579,-0.25 -1.07,-0.592 -1.477,-1.024c-0.404,-0.437 -0.729,-0.937 -0.969,-1.507c-0.242,-0.567 -0.438,-1.172 -0.594,-1.807c-0.154,-0.637 -0.289,-1.279 -0.405,-1.924c-0.115,-0.646 -0.23,-1.271 -0.347,-1.867c-0.502,0.078 -0.955,0.029 -1.359,-0.145c-0.405,-0.175 -0.768,-0.421 -1.085,-0.738c-0.318,-0.318 -0.594,-0.674 -0.825,-1.07c-0.23,-0.395 -0.414,-0.785 -0.55,-1.172c-0.135,-0.385 -0.221,-0.737 -0.26,-1.055c-0.039,-0.319 -0.029,-0.546 0.028,-0.681Zm6.221,2.488c0.598,0.038 1.244,-0.062 1.938,-0.304c0.694,-0.242 1.331,-0.55 1.909,-0.926c0.579,-0.377 1.051,-0.785 1.418,-1.23c0.366,-0.443 0.521,-0.856 0.463,-1.243c-0.039,-0.347 -0.184,-0.65 -0.435,-0.911c-0.251,-0.261 -0.655,-0.391 -1.215,-0.391c-0.676,0 -1.265,0.145 -1.766,0.434c-0.502,0.289 -0.926,0.671 -1.272,1.144c-0.348,0.473 -0.607,1.008 -0.781,1.604c-0.172,0.598 -0.259,1.206 -0.259,1.823Z" style="fill:#3e3e3e;fill-rule:nonzero;"/><path d="M531.998,504.347c0.039,-0.983 0.049,-2.149 0.029,-3.502c-0.02,-1.35 -0.062,-2.737 -0.13,-4.166c-0.068,-1.426 -0.159,-2.819 -0.275,-4.18c-0.114,-1.359 -0.24,-2.541 -0.376,-3.544c0,-0.328 0.12,-0.554 0.361,-0.681c0.241,-0.125 0.497,-0.188 0.769,-0.188c0.191,0 0.355,0.043 0.49,0.131c0.136,0.086 0.257,0.188 0.361,0.303c0.106,0.116 0.213,0.242 0.318,0.378c0.105,0.135 0.246,0.25 0.42,0.347c0.289,-0.327 0.67,-0.593 1.143,-0.796c0.474,-0.202 0.983,-0.348 1.533,-0.435c0.55,-0.087 1.114,-0.125 1.692,-0.114c0.578,0.01 1.113,0.066 1.605,0.173c0.491,0.105 0.911,0.256 1.258,0.448c0.349,0.192 0.579,0.415 0.694,0.665c-0.231,0.521 -0.468,0.845 -0.708,0.97c-0.242,0.126 -0.517,0.17 -0.825,0.131c-0.308,-0.039 -0.675,-0.103 -1.1,-0.188c-0.424,-0.087 -0.944,-0.071 -1.562,0.044c-0.888,0.021 -1.592,0.31 -2.111,0.867c-0.521,0.562 -0.916,1.278 -1.188,2.156c-0.27,0.877 -0.442,1.861 -0.521,2.951c-0.079,1.09 -0.098,2.17 -0.059,3.24c0.038,1.069 0.097,2.088 0.174,3.051c0.076,0.965 0.136,1.756 0.174,2.373c-0.154,0.153 -0.344,0.285 -0.563,0.391c-0.223,0.105 -0.438,0.148 -0.651,0.131c-0.213,-0.02 -0.409,-0.102 -0.593,-0.246c-0.179,-0.146 -0.299,-0.382 -0.359,-0.71Z" style="fill:#3e3e3e;fill-rule:nonzero;"/></g>



    <g><path d="M282.372,714.695l0,2l-8.977,0l0,-2l3.55,0l0,-9.75c-0.148,0.198 -0.384,0.412 -0.698,0.638c-0.317,0.225 -0.671,0.434 -1.062,0.625c-0.391,0.191 -0.796,0.354 -1.212,0.487c-0.417,0.134 -0.784,0.198 -1.1,0.198l0,-2.101c0.365,0 0.773,-0.104 1.225,-0.312c0.451,-0.207 0.879,-0.448 1.288,-0.726c0.408,-0.274 0.758,-0.541 1.05,-0.8c0.292,-0.259 0.462,-0.438 0.513,-0.538l2.25,0l0,12.275l3.173,0.004Z" style="fill:#3e3e3e;fill-rule:nonzero;"/><rect x="284.572" y="713.893" width="1.852" height="2.802" style="fill:#3e3e3e;fill-rule:nonzero;"/>

    <path d="M296.471,716.695l0,-17.75l11.725,0l0,2l-9.475,0l0,5.925l7.975,0l0,1.875l-7.975,0l0,7.95l-2.25,0Z" style="fill:#3e3e3e;fill-rule:nonzero;"/>

    <path d="M311.046,716.695l0,-17.75l2.25,0l0,15.75l9.898,0l0,2l-12.148,0Z" style="fill:#3e3e3e;fill-rule:nonzero;"/>

    <path d="M332.321,714.794c1.033,0 1.894,-0.199 2.575,-0.6c0.682,-0.401 1.229,-0.921 1.638,-1.562c0.409,-0.641 0.695,-1.375 0.862,-2.2c0.167,-0.823 0.25,-1.662 0.25,-2.513l0,-8.975l2.25,0l0,8.975c0,1.2 -0.138,2.338 -0.413,3.413c-0.273,1.075 -0.712,2.021 -1.312,2.837c-0.602,0.817 -1.379,1.463 -2.337,1.938c-0.958,0.475 -2.121,0.713 -3.487,0.713c-1.417,0 -2.609,-0.25 -3.575,-0.75c-0.967,-0.5 -1.746,-1.162 -2.337,-1.987c-0.592,-0.825 -1.017,-1.775 -1.275,-2.851c-0.259,-1.074 -0.388,-2.181 -0.388,-3.312l0,-8.975l2.25,0l0,8.975c0,0.884 0.087,1.738 0.263,2.562c0.177,0.823 0.468,1.555 0.875,2.188c0.408,0.634 0.95,1.146 1.625,1.538c0.674,0.391 1.519,0.586 2.536,0.586Z" style="fill:#3e3e3e;fill-rule:nonzero;"/>

    <path d="M354.321,702.669c-0.2,-0.231 -0.467,-0.458 -0.8,-0.675c-0.333,-0.216 -0.708,-0.412 -1.125,-0.587c-0.417,-0.176 -0.871,-0.316 -1.362,-0.426c-0.49,-0.107 -1.004,-0.162 -1.538,-0.162c-1.384,0 -2.396,0.259 -3.036,0.773c-0.644,0.518 -0.964,1.227 -0.964,2.125c0,0.483 0.093,0.883 0.275,1.199c0.183,0.317 0.471,0.588 0.862,0.812c0.392,0.227 0.879,0.423 1.463,0.589c0.583,0.167 1.273,0.342 2.075,0.523c0.917,0.199 1.746,0.431 2.486,0.688c0.741,0.258 1.375,0.579 1.9,0.962c0.525,0.384 0.925,0.851 1.2,1.398c0.273,0.552 0.413,1.227 0.413,2.024c0,0.851 -0.167,1.588 -0.5,2.213c-0.333,0.625 -0.788,1.143 -1.362,1.55c-0.575,0.409 -1.254,0.709 -2.038,0.9c-0.784,0.19 -1.634,0.287 -2.55,0.287c-1.367,0 -2.663,-0.212 -3.888,-0.639c-1.227,-0.426 -2.339,-1.046 -3.339,-1.861l1.075,-1.899c0.269,0.283 0.613,0.566 1.038,0.852c0.425,0.282 0.908,0.536 1.45,0.763c0.542,0.225 1.125,0.408 1.75,0.55c0.625,0.143 1.279,0.213 1.962,0.213c1.268,0 2.25,-0.226 2.95,-0.676c0.7,-0.449 1.05,-1.125 1.05,-2.023c0,-0.5 -0.112,-0.922 -0.337,-1.264c-0.225,-0.342 -0.554,-0.638 -0.988,-0.888c-0.434,-0.25 -0.971,-0.472 -1.61,-0.662c-0.643,-0.191 -1.371,-0.388 -2.188,-0.588c-0.898,-0.216 -1.69,-0.45 -2.375,-0.7c-0.684,-0.25 -1.254,-0.55 -1.712,-0.898c-0.458,-0.352 -0.804,-0.774 -1.038,-1.274c-0.234,-0.5 -0.35,-1.101 -0.35,-1.8c0,-0.852 0.157,-1.602 0.475,-2.25c0.316,-0.65 0.758,-1.2 1.325,-1.65c0.566,-0.449 1.241,-0.787 2.025,-1.012c0.781,-0.228 1.633,-0.338 2.55,-0.338c1.2,0 2.282,0.184 3.25,0.55c0.966,0.366 1.825,0.856 2.575,1.476l-1.049,1.825Z" style="fill:#3e3e3e;fill-rule:nonzero;"/>


    <path d="M371.92,700.945l-6.125,0l0,15.75l-2.25,0l0,-15.75l-6.125,0l0,-2l14.5,0l0,2Z" style="fill:#3e3e3e;fill-rule:nonzero;"/>

    <rect x="374.47" y="698.945" width="2.25" height="17.75" style="fill:#3e3e3e;fill-rule:nonzero;"/><path d="M381.421,698.945l5.398,7.398l5.4,-7.398l2.475,0l-6.675,9l6.475,8.75l-2.475,0l-5.2,-7.15l-5.2,7.15l-2.5,0l6.477,-8.75l-6.675,-9l2.5,0Z" style="fill:#3e3e3e;fill-rule:nonzero;"/></g>


    <g>
        <path d="M813.573,710.794c1.066,0.185 1.912,0.676 2.537,1.476c0.625,0.802 0.938,1.794 0.938,2.977c0,0.767 -0.145,1.467 -0.428,2.101c-0.281,0.634 -0.688,1.177 -1.212,1.625c-0.522,0.449 -1.152,0.795 -1.888,1.037c-0.733,0.241 -1.55,0.362 -2.449,0.362c-1.268,0 -2.38,-0.237 -3.338,-0.712c-0.959,-0.478 -1.705,-1.146 -2.238,-2.014l1.478,-1.477c0.384,0.686 0.897,1.221 1.55,1.613c0.65,0.391 1.5,0.587 2.551,0.587c1.149,0 2.055,-0.259 2.712,-0.774c0.658,-0.518 0.987,-1.301 0.987,-2.351c0,-1.05 -0.354,-1.889 -1.062,-2.514c-0.708,-0.625 -1.737,-0.938 -3.09,-0.938l-0.647,0l0,-1.85l0.7,0c1.197,0 2.121,-0.287 2.762,-0.862c0.643,-0.575 0.963,-1.304 0.963,-2.188c0,-0.885 -0.309,-1.543 -0.925,-1.977c-0.616,-0.433 -1.392,-0.648 -2.325,-0.648c-0.916,0 -1.721,0.195 -2.412,0.588c-0.689,0.393 -1.229,0.938 -1.611,1.638l-1.352,-1.399c0.217,-0.417 0.514,-0.796 0.889,-1.138c0.375,-0.342 0.809,-0.638 1.301,-0.888c0.49,-0.25 1.023,-0.441 1.6,-0.575c0.576,-0.133 1.18,-0.2 1.812,-0.2c0.781,0 1.504,0.109 2.162,0.325c0.657,0.217 1.227,0.517 1.699,0.899c0.476,0.384 0.842,0.851 1.102,1.398c0.258,0.551 0.388,1.159 0.388,1.825c0,0.5 -0.071,0.976 -0.212,1.425c-0.145,0.45 -0.352,0.859 -0.625,1.227c-0.275,0.365 -0.609,0.672 -1,0.911c-0.4,0.246 -0.835,0.408 -1.317,0.491Z" style="fill:#3e3e3e;fill-rule:nonzero;"/><rect x="819.722" y="713.893" width="1.851" height="2.802" style="fill:#3e3e3e;fill-rule:nonzero;"/><path d="M846.971,716.695l0,-13.725l-5.899,10.524l-1.273,0l-5.927,-10.524l0,13.727l-2.25,0l0,-17.75l2.375,0l6.427,11.523l6.448,-11.523l2.352,0l0,17.75l-2.253,-0.002Z" style="fill:#3e3e3e;fill-rule:nonzero;"/><path d="M858.869,698.945l1.899,0l7.25,17.75l-2.399,0l-2.101,-5.2l-7.45,0l-2.074,5.2l-2.398,0l7.273,-17.75Zm4.152,10.8l-3.2,-8.2l-3.3,8.2l6.5,0Z" style="fill:#3e3e3e;fill-rule:nonzero;"/><path d="M870.396,716.695l0,-17.75l7.601,0c0.783,0 1.506,0.162 2.162,0.485c0.658,0.325 1.227,0.761 1.699,1.302c0.477,0.542 0.846,1.148 1.113,1.823c0.266,0.677 0.398,1.362 0.398,2.062c0,0.617 -0.088,1.213 -0.264,1.788c-0.174,0.574 -0.424,1.096 -0.75,1.562c-0.324,0.468 -0.717,0.866 -1.174,1.199c-0.459,0.334 -0.973,0.575 -1.538,0.728l4.3,6.8l-2.55,0l-4.05,-6.375l-4.7,0l0,6.375l-2.247,0.001Zm2.25,-8.375l5.375,0c0.466,0 0.888,-0.102 1.263,-0.302c0.375,-0.198 0.695,-0.471 0.963,-0.812c0.268,-0.342 0.477,-0.737 0.625,-1.188c0.149,-0.448 0.227,-0.916 0.227,-1.398c0,-0.5 -0.088,-0.971 -0.263,-1.412c-0.177,-0.441 -0.409,-0.833 -0.7,-1.175c-0.291,-0.342 -0.634,-0.608 -1.025,-0.801c-0.391,-0.191 -0.804,-0.287 -1.236,-0.287l-5.226,0l-0.003,7.375Z" style="fill:#3e3e3e;fill-rule:nonzero;"/><path d="M886.821,716.695l0,-17.725l2.25,0l0,9.8l9.15,-9.823l2.425,0l-7.125,7.823l7.524,9.927l-2.449,0l-6.45,-8.625l-3.075,3.198l0,5.427l-2.25,-0.002Z" style="fill:#3e3e3e;fill-rule:nonzero;"/><path d="M915.92,700.945l-6.125,0l0,15.75l-2.25,0l0,-15.75l-6.125,0l0,-2l14.5,0l0,2Z" style="fill:#3e3e3e;fill-rule:nonzero;"/>
    </g>

    <g>
        <path d="M547.097,75.695c0,-0.666 0.054,-1.291 0.162,-1.875c0.106,-0.583 0.312,-1.142 0.611,-1.675c0.302,-0.533 0.712,-1.042 1.237,-1.525c0.525,-0.483 1.212,-0.966 2.062,-1.45c0.5,-0.266 1.008,-0.528 1.523,-0.787c0.519,-0.258 0.988,-0.533 1.413,-0.825c0.425,-0.291 0.775,-0.604 1.05,-0.938c0.275,-0.333 0.412,-0.725 0.412,-1.175c0,-0.283 -0.064,-0.566 -0.2,-0.85c-0.134,-0.283 -0.323,-0.533 -0.573,-0.75c-0.25,-0.217 -0.562,-0.392 -0.938,-0.525c-0.375,-0.133 -0.804,-0.2 -1.288,-0.2c-0.5,0 -0.954,0.071 -1.362,0.213c-0.407,0.142 -0.771,0.316 -1.087,0.524c-0.315,0.209 -0.592,0.43 -0.823,0.663c-0.233,0.233 -0.427,0.441 -0.575,0.625l-1.425,-1.601c0.133,-0.149 0.356,-0.354 0.675,-0.612c0.314,-0.258 0.716,-0.521 1.2,-0.787c0.482,-0.266 1.042,-0.496 1.675,-0.688c0.633,-0.191 1.341,-0.288 2.125,-0.288c0.766,0 1.458,0.104 2.075,0.312c0.615,0.209 1.138,0.496 1.562,0.863c0.425,0.366 0.754,0.796 0.988,1.287c0.231,0.492 0.35,1.013 0.35,1.562c0,0.65 -0.142,1.217 -0.425,1.7c-0.284,0.483 -0.629,0.908 -1.038,1.274c-0.409,0.367 -0.846,0.68 -1.312,0.938c-0.468,0.259 -0.884,0.479 -1.25,0.663c-0.366,0.184 -0.778,0.404 -1.236,0.662c-0.458,0.259 -0.896,0.55 -1.312,0.875c-0.417,0.325 -0.777,0.688 -1.087,1.088c-0.309,0.399 -0.504,0.833 -0.588,1.3l8.525,0l0,2l-11.125,0l-0.001,0.002Z" style="fill:#3e3e3e;fill-rule:nonzero;"/><rect x="560.995" y="72.895" width="1.852" height="2.8" style="fill:#3e3e3e;fill-rule:nonzero;"/><path d="M572.896,75.695l0,-17.75l2.25,0l0,15.75l9.9,0l0,2l-12.15,0Z" style="fill:#3e3e3e;fill-rule:nonzero;"/><path d="M592.896,57.945l1.9,0l7.25,17.75l-2.399,0l-2.101,-5.2l-7.45,0l-2.075,5.2l-2.4,0l7.275,-17.75Zm4.15,10.8l-3.2,-8.2l-3.3,8.2l6.5,0Z" style="fill:#3e3e3e;fill-rule:nonzero;"/><path d="M618.046,71.12c0,0.684 -0.14,1.309 -0.413,1.875c-0.274,0.567 -0.649,1.05 -1.125,1.45c-0.477,0.4 -1.024,0.709 -1.649,0.925c-0.625,0.217 -1.296,0.325 -2.013,0.325l-8.425,0l0,-17.75l8.823,0c0.616,0 1.177,0.134 1.677,0.4c0.5,0.266 0.925,0.612 1.272,1.037c0.353,0.425 0.621,0.908 0.812,1.45c0.189,0.542 0.288,1.087 0.288,1.638c0,0.883 -0.224,1.699 -0.663,2.449c-0.441,0.75 -1.07,1.309 -1.889,1.676c1.018,0.3 1.82,0.854 2.412,1.662c0.594,0.808 0.893,1.763 0.893,2.863Zm-11.375,-11.225l0,5.925l5.647,0c0.4,0 0.77,-0.079 1.103,-0.237c0.333,-0.158 0.62,-0.371 0.86,-0.638c0.242,-0.267 0.436,-0.579 0.575,-0.938c0.142,-0.359 0.212,-0.737 0.212,-1.138c0,-0.416 -0.064,-0.808 -0.199,-1.175c-0.134,-0.366 -0.312,-0.684 -0.535,-0.95c-0.228,-0.267 -0.5,-0.475 -0.826,-0.625c-0.324,-0.149 -0.67,-0.225 -1.037,-0.225l-5.8,0.001Zm9.101,10.825c0,-0.4 -0.072,-0.788 -0.213,-1.163c-0.145,-0.375 -0.334,-0.704 -0.575,-0.987c-0.241,-0.283 -0.529,-0.508 -0.862,-0.675c-0.334,-0.167 -0.698,-0.25 -1.1,-0.25l-6.351,0l0,6.1l6.175,0c0.416,0 0.801,-0.083 1.148,-0.25c0.352,-0.166 0.658,-0.388 0.927,-0.662c0.267,-0.275 0.476,-0.596 0.625,-0.963c0.15,-0.367 0.226,-0.75 0.226,-1.15Z" style="fill:#3e3e3e;fill-rule:nonzero;"/><path d="M628.397,75.82c-1.25,0 -2.389,-0.254 -3.413,-0.763c-1.024,-0.508 -1.904,-1.183 -2.638,-2.024c-0.734,-0.841 -1.3,-1.805 -1.699,-2.888c-0.4,-1.083 -0.601,-2.191 -0.601,-3.325c0,-1.184 0.212,-2.316 0.638,-3.4c0.425,-1.083 1.012,-2.041 1.762,-2.875c0.75,-0.833 1.639,-1.495 2.663,-1.987c1.024,-0.491 2.138,-0.737 3.337,-0.737c1.25,0 2.384,0.263 3.4,0.787c1.017,0.525 1.892,1.213 2.625,2.062c0.731,0.851 1.301,1.812 1.7,2.888c0.397,1.076 0.601,2.171 0.601,3.288c0,1.184 -0.213,2.316 -0.639,3.399c-0.424,1.084 -1.008,2.038 -1.75,2.862c-0.741,0.825 -1.625,1.484 -2.649,1.976c-1.024,0.492 -2.138,0.737 -3.337,0.737Zm-6.076,-9c0,0.9 0.146,1.771 0.438,2.612c0.292,0.842 0.705,1.588 1.236,2.237c0.533,0.65 1.177,1.167 1.927,1.551c0.75,0.383 1.583,0.574 2.5,0.574c0.948,0 1.8,-0.203 2.55,-0.612c0.75,-0.408 1.388,-0.941 1.912,-1.6c0.523,-0.658 0.926,-1.404 1.2,-2.237c0.273,-0.834 0.411,-1.676 0.411,-2.525c0,-0.9 -0.146,-1.771 -0.438,-2.612c-0.292,-0.842 -0.709,-1.583 -1.25,-2.226c-0.542,-0.641 -1.186,-1.153 -1.926,-1.537c-0.741,-0.383 -1.562,-0.575 -2.464,-0.575c-0.948,0 -1.8,0.2 -2.55,0.601c-0.75,0.399 -1.388,0.925 -1.912,1.574c-0.523,0.65 -0.93,1.393 -1.213,2.226c-0.279,0.833 -0.421,1.683 -0.421,2.549Z" style="fill:#3e3e3e;fill-rule:nonzero;"/><path d="M639.896,75.695l0,-17.75l7.601,0c0.783,0 1.506,0.162 2.162,0.487c0.658,0.325 1.227,0.759 1.699,1.3c0.477,0.542 0.846,1.15 1.113,1.825c0.266,0.675 0.398,1.362 0.398,2.062c0,0.617 -0.088,1.213 -0.264,1.788c-0.174,0.574 -0.424,1.096 -0.75,1.562c-0.324,0.467 -0.717,0.866 -1.174,1.199c-0.459,0.334 -0.973,0.575 -1.538,0.726l4.3,6.8l-2.55,0l-4.05,-6.375l-4.7,0l0,6.375l-2.247,0.001Zm2.25,-8.375l5.375,0c0.466,0 0.888,-0.1 1.263,-0.3c0.375,-0.2 0.695,-0.471 0.963,-0.812c0.268,-0.342 0.477,-0.737 0.625,-1.188c0.149,-0.45 0.227,-0.917 0.227,-1.4c0,-0.5 -0.088,-0.971 -0.263,-1.412c-0.177,-0.441 -0.409,-0.833 -0.7,-1.175c-0.291,-0.342 -0.634,-0.608 -1.025,-0.801c-0.391,-0.191 -0.804,-0.287 -1.236,-0.287l-5.226,0l-0.003,7.375Z" style="fill:#3e3e3e;fill-rule:nonzero;"/></g>

    <path class="default-show" d="M434.619,578.415c2.034,-0.464 3.912,-0.81 5.746,-1.322c6.896,-1.933 13.084,-5.135 18.352,-10.096c3.772,-3.552 6.765,-7.624 8.911,-12.308c3.753,-8.18 4.642,-16.649 2.306,-25.391c-0.292,-1.095 -0.669,-2.18 -1.13,-3.214c-0.372,-0.833 -1.021,-1.529 -2.063,-1.199c-1.044,0.33 -1.347,1.124 -1.049,2.183c0.473,1.682 0.925,3.369 1.361,5.062c1.318,5.13 0.89,10.232 -0.451,15.265c-1.484,5.572 -4.359,10.434 -8.229,14.67c-4.604,5.039 -10.275,8.486 -16.757,10.557c-2.526,0.806 -5.136,1.353 -7.706,2.019c-0.078,-0.144 -0.153,-0.286 -0.231,-0.43c0.915,-0.926 1.832,-1.849 2.745,-2.775c0.89,-0.903 1.812,-1.781 2.664,-2.724c0.782,-0.867 0.866,-1.855 0.068,-2.749c-0.797,-0.891 -1.679,-0.854 -2.721,0.157c-2.979,2.899 -5.923,5.834 -8.864,8.773c-0.746,0.75 -0.725,2.061 0.167,2.793c1.488,1.227 3.074,2.329 4.63,3.47c1.951,1.427 3.931,2.814 5.867,4.265c0.75,0.562 1.5,0.813 2.271,0.199c0.771,-0.614 0.894,-1.984 0.116,-2.702c-1.187,-1.096 -2.522,-2.034 -3.817,-3.013c-0.663,-0.501 -1.372,-0.939 -2.186,-1.49Z" style="fill:#3e3e3e;fill-rule:nonzero;"/></svg>