<svg xmlns="http://www.w3.org/2000/svg" width="1704" height="2184"><g fill="#fff"><path d="M547.6 1936.5c-1.04-1.2-2.26-2.1-3.66-2.7-1.4-.6-2.82-.9-4.26-.9H521.2v27.6h19.2c3.04 0 5.58-1.24 7.62-3.72 2.04-2.48 3.06-5.84 3.06-10.08 0-2.16-.32-4.1-.96-5.82-.64-1.72-1.48-3.18-2.52-4.38zM668.8 1970.7h24l-11.76-33.48zM1104.1 1936.8c-1.08-1.24-2.33-2.2-3.72-2.88-1.4-.68-2.83-1.02-4.27-1.02h-20.02v27.6h20.76c1.5 0 2.94-.36 4.26-1.08s2.46-1.7 3.42-2.94 1.72-2.7 2.28-4.38c.55-1.68.84-3.48.84-5.4 0-2-.33-3.84-.96-5.52-.65-1.68-1.5-3.14-2.58-4.38zM27-1c0 718.33 0 1436.67 0 2155 558.67 0 1117.33 0 1676 0 0-718.33 0-1436.67 0-2155C1144.33-1 585.67-1 27-1zm445.4 1774.54c-.02-48.32.1-96.64-.12-144.96-.04-7.92-.7-16.05-2.57-23.72-2.62-10.8-10.1-17.35-21.37-18.96-21.38-3.05-33.1 4.86-37.62 25.95-1.43 6.72-1.53 13.73-2.3 21.12 11.32 0 21.58 0 32.18 0 0 12.47 0 24.52 0 37.1-10.33 0-20.58 0-31.45 0 0 48.35 0 96.2 0 144.53-16.8 0-32.58 0-49.02 0 0-48 0-95.87 0-144.32-8.68 0-16.75 0-25.1 0 0-12.65 0-24.7 0-37.1 8.25 0 16.2 0 24.93 0 0-3.44-.2-6.54.04-9.6.7-9.62.47-19.46 2.55-28.77 5.48-24.47 21.53-39.72 45.2-46.67 22.58-6.63 45.5-6.3 68 .35 26.08 7.7 43.46 30.12 45.23 57.42.54 8.3.52 16.65.53 24.98.05 39.15 0 78.3.04 117.46 0 2.83.1 5.68.44 8.48 1.47 11.9 9.8 18.3 21.6 16.4 5.4-.86 10.7-2.37 16.8-3.77.6 3.26 1.2 6.77 1.83 10.28 1.5 8.35 3.14 16.68 4.4 25.07.22 1.46-.8 4.22-1.86 4.6-18.77 6.4-37.9 10.66-57.82 6.64-21.83-4.42-34.52-20.3-34.53-42.5zm93.56 183.66c-1.28 3.4-3.08 6.42-5.4 9.06-2.32 2.64-5.12 4.76-8.4 6.36-3.28 1.6-6.88 2.4-10.8 2.4H521.2v28.56h-16.56v-85.2h36.12c3.92 0 7.54.82 10.86 2.46 3.32 1.64 6.18 3.8 8.58 6.48 2.4 2.68 4.28 5.72 5.64 9.12 1.36 3.4 2.04 6.82 2.04 10.26 0 3.6-.64 7.1-1.92 10.5zm73.44 46.38h-60v-85.2h16.56v70.68h43.44v14.52zm64.32 0l-7.92-21.24h-29.76l-7.8 21.24H641.2l32.52-85.2h14.64l32.4 85.2h-17.04zm-72.84-187.33c-24.05-4.28-35.9-22.04-40.72-44.7-1.82-8.58-2.84-17.48-2.9-26.25-.3-39.32-.14-78.65-.14-117.98 0-1.3.12-2.6.2-4.18 16.2 0 32.13 0 48.8 0 0 1.92 0 3.84 0 5.77 0 33.33-.1 66.66.07 100 .03 6.95.5 14 1.78 20.84 4.06 21.46 18.94 30.8 40.4 25.7 18.16-4.3 30.43-15.78 38.45-32.18.9-1.82.9-4.2.9-6.3.06-35.83.05-71.66.04-107.48 0-1.98 0-3.95 0-6.28 16.4 0 32.45 0 49.06 0 0 2.14 0 4.1 0 6.04 0 41.5 0 83 0 124.48 0 1.67 0 3.33.02 5 .2 9.68 1.8 11.8 11.25 14.64 0 13.52 0 27.13 0 41.28-11.8 2.2-23.6 4.06-35.3-.2-10.6-3.87-16.3-11.64-16.87-23.04-.2-3.74-.62-7.47-1.02-12.24-1.6 2.15-2.55 3.46-3.55 4.7-23.47 29.5-54.65 38.75-90.47 32.4zm156.42 174.67c-1.72 3.24-4.04 5.86-6.96 7.86s-6.28 3.46-10.08 4.38c-3.8.92-7.78 1.38-11.94 1.38-6.4 0-12.72-.96-18.96-2.88s-11.84-4.64-16.8-8.16l7.32-14.28c.72.72 2.02 1.66 3.9 2.82s4.1 2.32 6.66 3.48c2.56 1.16 5.4 2.14 8.52 2.94 3.12.8 6.32 1.2 9.6 1.2 9.12 0 13.68-2.92 13.68-8.76 0-1.84-.52-3.4-1.56-4.7-1.04-1.26-2.52-2.38-4.44-3.34-1.92-.96-4.24-1.84-6.96-2.64-2.72-.8-5.76-1.7-9.12-2.65-4.08-1.1-7.62-2.34-10.62-3.66s-5.5-2.87-7.5-4.67c-2-1.8-3.5-3.88-4.5-6.24-1-2.36-1.5-5.18-1.5-8.47 0-4.32.8-8.16 2.4-11.52 1.6-3.35 3.82-6.15 6.66-8.4 2.84-2.22 6.14-3.92 9.9-5.1 3.76-1.14 7.8-1.73 12.12-1.73 6 0 11.52.95 16.56 2.82 5.04 1.87 9.44 4.1 13.2 6.65l-7.32 13.44c-.56-.57-1.58-1.33-3.06-2.3-1.48-.95-3.28-1.9-5.4-2.8-2.12-.92-4.42-1.7-6.9-2.35-2.48-.64-5-.96-7.56-.96-4.56 0-7.96.83-10.2 2.5-2.24 1.7-3.36 4.05-3.36 7.1 0 1.76.42 3.22 1.26 4.37.84 1.16 2.06 2.2 3.66 3.06 1.6.9 3.62 1.7 6.06 2.4 2.44.72 5.26 1.5 8.46 2.28 4.16 1.14 7.94 2.34 11.34 3.6 3.4 1.3 6.28 2.9 8.64 4.8 2.36 1.93 4.18 4.24 5.46 6.9 1.28 2.7 1.92 6 1.92 9.9 0 4.58-.86 8.48-2.58 11.72zm78.18-58.02h-27.24v70.68H821.8v-70.68h-27.24v-14.52h70.92v14.52zm-58.68-139.82c-1.84-1.36-3.6-2.86-5.52-4.43 6.34-10.63 12.22-20.47 17.86-29.93 9.9 5.37 19.3 11.08 29.2 15.7 16 7.45 32.9 10.92 50.52 7.5 4.43-.86 9.02-2.8 12.68-5.43 10.5-7.6 9.32-24.18-2.57-29.17-12.67-5.32-26.06-8.95-39.14-13.3-10.26-3.4-20.65-6.42-30.77-10.2-34.87-12.98-36.75-42.15-25.17-68.02 7.76-17.37 22.55-27.67 40.4-32.38 35.58-9.37 68.97-4.22 99.06 17.88 1.6 1.18 3.05 2.55 5 4.2-6.56 9.87-13.06 19.62-19.66 29.52-12.53-9.16-25.5-16.52-40.5-19.54-10.9-2.2-21.82-2.83-32.42 1.6-6.8 2.82-11.2 7.6-11.9 15.26-.9 9.4 1.48 14.9 10.24 18.38 10.3 4.1 21.16 6.83 31.75 10.23 12.18 3.9 24.42 7.67 36.46 11.98 4.8 1.72 9.3 4.45 13.65 7.18 13.2 8.3 19.48 20.5 19.85 35.95.6 25.2-12.36 44.94-36.4 54.92-19.67 8.16-40.23 8.6-60.93 5.96-22.46-2.9-43.34-10.2-61.7-23.85zm85.8 210.5h-16.56v-85.2h16.56v85.2zm71.76 0l-26.52-36.84-10.92 11.4v25.44h-16.56v-85.08h16.56v40.44l35.76-40.56h18.24l-32.64 37.8 34.68 47.4h-18.6zm133.45-380.78c0 12.65 0 24.73 0 37.64-13.35 0-26.3 0-39.64 0-.1 2-.26 3.6-.26 5.2-.02 29.17-.03 58.33 0 87.48 0 14.37 6.83 21.15 21.15 19.6 7.98-.88 15.74-3.72 24.03-5.8 3.1 12.12 6.32 24.8 9.65 37.84-22.86 9.52-45.63 16.93-70.5 11.3-20.07-4.56-32.94-19.83-33.18-40.73-.42-35.32-.18-70.64-.2-105.97-.02-2.65 0-5.3 0-8.74-8.44 0-16.64 0-25.14 0 0-12.86 0-24.95 0-37.6 8.2 0 16.26 0 24.9 0 0-20.93 0-41.32 0-62.12 16.62 0 32.66 0 49.24 0 0 20.54 0 40.94 0 61.9 13.6 0 26.66 0 39.97 0zm-49.92 310.1h-40.68v21.96h33.84v13.44h-33.84v35.28h-16.56v-85.2h57.24v14.52zm61.9 70.68l-17.38-28.56h-16.32v28.56h-16.56v-85.2h37.68c3.9 0 7.54.82 10.86 2.46 3.3 1.64 6.18 3.8 8.58 6.48 2.4 2.68 4.27 5.72 5.64 9.12 1.36 3.4 2.04 6.82 2.04 10.26 0 5.52-1.38 10.54-4.14 15.06-2.76 4.52-6.5 7.78-11.22 9.78l19.43 32.04h-18.6zm29.04-407.78c0-16.02 0-31.92 0-48.2 16.1 0 31.98 0 48.48 0 0 16.2 0 32.1 0 48.2-16.26 0-32.2 0-48.48 0zm.15 27.3c16.03 0 31.97 0 48.28 0 0 63.68 0 127.23 0 191.38-16.24 0-32.03 0-48.28 0 0-63.78 0-127.46 0-191.4zm59.5 380.48h-59.16v-85.2h58.1v14.52h-41.53v20.52h35.88v13.44h-35.88v22.2h42.6v14.52zm29.52 0h-16.57v-85.2H1228v85.2zm158.77-188.8c-9.83 0-19.67-.16-29.5.07-3.4.1-5.44-1.08-7.36-3.8-14.36-20.42-28.87-40.73-43-60.6-14 19.87-28.4 40.13-42.6 60.5-1.9 2.72-3.86 3.95-7.3 3.9-14.8-.2-29.63-.08-45.87-.08 1.74-2.44 2.76-3.9 3.8-5.32 20.9-28.87 41.77-57.77 62.8-86.55 2.16-2.94 2.06-4.83 0-7.72-20.52-28.75-40.88-57.6-61.28-86.42-1.14-1.62-2.26-3.25-3.77-5.42 1.7-.2 2.9-.48 4.1-.48 13.82-.03 27.66.07 41.5-.1 3-.03 4.8.92 6.5 3.4 12.36 18.18 24.9 36.23 37.33 54.37 1.7 2.45 2.94 5.2 4.65 8.3 1.8-2.85 3.43-5.6 5.23-8.26 12.3-18.03 24.67-36 36.87-54.08 1.77-2.63 3.55-3.8 6.83-3.75 14.97.2 29.94.1 46 .1-1.54 2.28-2.55 3.87-3.64 5.4-20.57 28.9-41.1 57.86-61.78 86.68-2.2 3.06-2.36 5.03-.06 8.16 21.23 28.84 42.26 57.83 63.35 86.78.95 1.3 1.82 2.66 3.34 4.9-6 0-11.06 0-16.13 0zm-522-398.78c-348.18-.1-630.82-282.73-630.5-630.44.34-348.2 282.67-630.08 630.95-629.94 348.3.13 630.64 282.44 630.5 630.38-.16 347.97-282.7 630.1-630.95 630z"/></g><path fill="#fff" fill-rule="evenodd" d="M903.9 1340.7c-6.8 21.9-21.17 33.9-41.2 33.96-20.3.06-34.46-11.64-41.82-34.42-17.23-2.28-34.47-4-51.5-6.9-85.47-14.64-163.56-47.2-233.2-98.88-109.78-81.5-180.84-188.96-211.85-322.25-5.8-24.86-8.14-50.54-11.9-75.88-.52-3.58-1.07-5.73-5.28-6.87-17.82-4.8-29.94-21.07-30.18-39.6-.23-18.65 11.73-35.1 29.8-40.38 3.72-1.1 5.3-2.58 5.65-6.6 11.82-132.24 64.1-246.1 157-340.8 78.06-79.55 172.32-130.34 281.4-153.04 21.8-4.53 44.12-6.48 66.22-9.44 2.97-.4 4.56-1.12 5.6-4.3 5.76-17.8 21.6-29.22 39.87-29.2 18.32.03 34.03 11.45 39.86 29.27.92 2.83 2.18 3.93 5.13 4.18 119.96 10.16 225.9 54.3 316.73 133.18 92.77 80.57 152.3 181.4 178.12 301.63 4.85 22.56 7.03 45.7 10.16 68.6.52 3.67 1.6 5.28 5.33 6.32 18.3 5.08 30.65 21.7 30.52 40.4-.13 18.75-12.6 35-31.05 40-3.37.9-4.4 2.47-4.7 5.7-10.14 118-53.35 222.45-130.36 312.25-83.08 96.88-187.73 157.97-313.02 183.02-21.35 4.27-43.07 6.68-65.34 10.06zm495.38-593.12c-13.44-144.03-72.84-265.36-181.32-361.55-89.43-79.3-194.63-122.64-313.6-132.87-5.4 21.72-19.1 34.8-37.28 36.4-9.2.83-17.9-.8-25.92-5.58-11.56-6.9-17.95-17.38-20.57-31.1-148.22 14.2-271.7 76.03-368.38 188.92-75.4 88.02-116.6 190.7-126.34 306.03 20.64 6 33.33 19.4 34.5 36.75 1.65 24.83-11 39.68-34.02 46.52 18.83 271.97 245.94 480.15 494.68 493.9 6.74-21.6 20.6-33.4 40.36-34.02 8.7-.27 16.82 2.05 24.1 6.9 9.92 6.57 15.77 15.95 18.34 27.34 266.73-17.77 479.13-239.38 494.6-494.3-21.58-6.37-34.03-20.25-33.82-43.42.17-18.57 11.92-31.9 34.66-39.92zM995.88 1085.72c0-197.95 0-394.77 0-592.82 101.22 99.2 201.7 197.66 302.47 296.42-100.8 98.76-201.3 197.24-302.47 296.4zm157.68-384.5c-9.3 12.77-18.24 25.02-27.67 37.94 18.8 0 36.6 0 55.35 0-9.4-12.88-18.34-25.13-27.7-37.93zM748.53 584.08c70.12 68.6 139.8 136.74 209.78 205.2-69.9 68.38-139.55 136.53-209.76 205.22-59.2-68.47-118.23-136.7-177.46-205.2 59.13-68.4 118.06-136.54 177.45-205.22zM980 789.18c-71.77-70.2-142.7-139.6-214.4-209.72 71.72-29 142.8-57.7 214.4-86.65 0 98.86 0 196.98 0 296.38zM980.1 789.52c0 99.5 0 197.6 0 296.5-71.6-28.94-142.76-57.7-214.5-86.68 71.56-70 142.62-139.5 214.5-209.82zM613.13 1158.3c15.16-16.05 31.2-33.9 48.16-50.83 30.86-30.86 62.3-61.14 93.4-91.75 2.3-2.25 4-2.92 7.26-1.6 70.87 28.8 141.8 57.43 212.73 86.1 1.35.55 2.66 1.2 5.18 2.34-124.07 18.86-246.9 37.54-366.75 55.75zM608.92 419.85c123.93 18.84 246.58 37.5 370.56 56.34-2.22 1.13-3.37 1.84-4.6 2.34-70.92 28.67-141.84 57.3-212.74 86.02-2.7 1.1-4.6 1.34-7-1.04-48-47.17-96.12-94.22-144.2-141.3-.35-.35-.64-.75-2.02-2.37zM426.9 658.6c44.8 43.88 88.8 87.02 133.36 130.7C515.93 832.72 471.78 876 426.9 920c0-87.5 0-173.87 0-261.4z" clip-rule="evenodd"/></svg>